<mxfile host="app.diagrams.net" modified="2023-10-22T14:47:38.194Z" agent="Mozilla/5.0 (Windows NT 10.0; Win64; x64) AppleWebKit/537.36 (KHTML, like Gecko) Chrome/118.0.0.0 Safari/537.36" etag="A2dpoR5Fj6sjgpFlYOD4" version="22.0.6" type="github">
  <diagram name="Stránka-1" id="5V9dLEnHxDBhkWdFbIiP">
    <mxGraphModel dx="1696" dy="1679" grid="1" gridSize="10" guides="1" tooltips="1" connect="1" arrows="1" fold="1" page="1" pageScale="1" pageWidth="827" pageHeight="1169" math="0" shadow="0">
      <root>
        <mxCell id="0" />
        <mxCell id="1" parent="0" />
        <mxCell id="OkQ715_x-9JWaOCkeFNG-2" value="" style="rounded=0;whiteSpace=wrap;html=1;fillColor=#000000;" vertex="1" parent="1">
          <mxGeometry x="10" y="240" width="810" height="540" as="geometry" />
        </mxCell>
        <mxCell id="OkQ715_x-9JWaOCkeFNG-3" value="" style="rounded=0;whiteSpace=wrap;html=1;" vertex="1" parent="1">
          <mxGeometry x="10" y="240" width="120" height="540" as="geometry" />
        </mxCell>
        <mxCell id="OkQ715_x-9JWaOCkeFNG-4" value="&lt;font style=&quot;font-size: 17px;&quot;&gt;AAPL&lt;/font&gt;" style="rounded=0;whiteSpace=wrap;html=1;" vertex="1" parent="1">
          <mxGeometry x="10" y="280" width="120" height="60" as="geometry" />
        </mxCell>
        <mxCell id="OkQ715_x-9JWaOCkeFNG-5" value="&lt;font style=&quot;font-size: 17px;&quot;&gt;MSFT&lt;/font&gt;" style="rounded=0;whiteSpace=wrap;html=1;" vertex="1" parent="1">
          <mxGeometry x="10" y="350" width="120" height="60" as="geometry" />
        </mxCell>
        <mxCell id="OkQ715_x-9JWaOCkeFNG-7" value="10 tickerů na den&lt;br&gt;5 losers 5 gainers&lt;br&gt;ověřit u brokera jestli jsou k dispozici&lt;br&gt;pokud ano:&lt;br&gt;přidat&lt;br&gt;pokud ne:&lt;br&gt;nepřidat&lt;br&gt;půl hodiny po začátku dne se tam přidají&lt;br&gt;zobrazení odkdy dokdy je burza otevřená&lt;br&gt;" style="rounded=0;whiteSpace=wrap;html=1;" vertex="1" parent="1">
          <mxGeometry x="230" y="-50" width="460" height="260" as="geometry" />
        </mxCell>
        <mxCell id="OkQ715_x-9JWaOCkeFNG-8" value="&lt;font style=&quot;font-size: 17px;&quot;&gt;STOP&lt;/font&gt;" style="rounded=0;whiteSpace=wrap;html=1;" vertex="1" parent="1">
          <mxGeometry x="10" y="660" width="120" height="60" as="geometry" />
        </mxCell>
        <mxCell id="OkQ715_x-9JWaOCkeFNG-9" value="&lt;font style=&quot;font-size: 17px;&quot;&gt;Odhlášení&lt;/font&gt;" style="rounded=0;whiteSpace=wrap;html=1;" vertex="1" parent="1">
          <mxGeometry x="10" y="720" width="120" height="60" as="geometry" />
        </mxCell>
        <mxCell id="OkQ715_x-9JWaOCkeFNG-12" style="edgeStyle=orthogonalEdgeStyle;rounded=0;orthogonalLoop=1;jettySize=auto;html=1;entryX=0;entryY=0.5;entryDx=0;entryDy=0;" edge="1" parent="1" source="OkQ715_x-9JWaOCkeFNG-10" target="OkQ715_x-9JWaOCkeFNG-8">
          <mxGeometry relative="1" as="geometry" />
        </mxCell>
        <mxCell id="OkQ715_x-9JWaOCkeFNG-10" value="okamžitě ukončí pozice,&lt;br&gt;smažou se, pokud to vyberu, vypne se, tlačítko se změní na start" style="rounded=0;whiteSpace=wrap;html=1;" vertex="1" parent="1">
          <mxGeometry x="-370" y="540" width="150" height="105" as="geometry" />
        </mxCell>
        <mxCell id="OkQ715_x-9JWaOCkeFNG-14" value="" style="rounded=0;whiteSpace=wrap;html=1;fillColor=#000000;strokeColor=#FFFFFF;" vertex="1" parent="1">
          <mxGeometry x="130" y="720" width="690" height="60" as="geometry" />
        </mxCell>
        <mxCell id="OkQ715_x-9JWaOCkeFNG-15" value="" style="shape=image;verticalLabelPosition=bottom;labelBackgroundColor=default;verticalAlign=top;aspect=fixed;imageAspect=0;image=data:image/png,iVBORw0KGgoAAAANSUhEUgAAB4AAAAeACAQAAACFq4JNAAAAIGNIUk0AAHomAACAhAAA+gAAAIDoAAB1MAAA6mAAADqYAAAXcJy6UTwAAAACYktHRAD/h4/MvwAAAAlwSFlzAAAphQAAKYUBj1X+4QAAAAd0SU1FB+YMEQMiIyYPBs8AAAZWelRYdFJhdyBwcm9maWxlIHR5cGUgeG1wAABYha1ZSZKrOBTcv1P0EUAjHAcz7Dqil//4nfnEIIygUMUvV5VtpHzzJJA///4n/+DH+hjEjnaJXWxCG2z4BB+daYIJPsTQh9lOxszL5/NZjMH1Pjhe8dF6N9nGTbFxFnu70Ivr4hAB9DYObvYu4B0ErQXIGLvYuRnsGDs7xC4AGCYyC61p+D2MYY6Wa0IOkMaFhXLYIS3s21WSgwyufYhwO8I0vnOTb8RQuCXqJRvNbFszQZ6GL16xPa45qGRCsN722DPiurH8AyO89/wvBOrlAdta/DcWMny9DBUEfARDB4KDN865kKsndlgXqWIXHV4gCpWWqD9mjtDVzCp1BO8WUvVJCrBclPEUjZAIPtgIH9EqsYNq4MD1JEcuCcSAy+AQE3q1WA9LzZAsEYJxWxhuiTAwJYNuw6ZW7hsQgaNL0odZIsU+fDAjmpYwYWkFURmYu6H/yuRVriBl+nfkE6hEXi70NV7chMitYdAJzNsc9EFwelDCRueQV8mSZybyxOXMhAkW4SvsWbxR79E9Bvu98xIDkg6O1zgs+wr5V4iyRomMW4QJ1MFGeglAzxwjWUiZJGkfFG2Q9TQ/ZA2wEWhXmfUEJzqxlMcIUQ++YyNlwx6k92ge3PrJ4zcayKPpQTbMOrEW4ALMox7iMyyHesMwTNbL4VuxUbTcwvs38AMtKjQNOdKNKLipensFsZR5QP0B25IEKLq9T14OrWylQIFtEUC5WjQD79kQYPTQ3ahWAjlG1RxiGXZGwSAaR3SiFnsV1bpU4uiZhrVcy10utykRE28hAdvMyOzxNJ05TJ5kKUrRbfkWRhZEyTnBuKzHnVbmOzX6M4ENL68JFOCeVuxTUZGTxkdRY5lfUOT3NHaIK5U7Wmc7sG1RVRyLhkPbs06w0CFWDJYb27kW760z+o6uiB/Ii2/NDbsUS5EByeQba/lf2UsVfwaGZTiEWeviyo57BDkPg+nAMoB6a5nelCRoM4cLQN7hE92AGcAwYLEe0rWOLQXYljYygYXA5vGi5XXAJtpgYkBqVdrjXgsc4v5AyLXi5UnspsBS7C+BmUre4NbxJzjR8G9dSgO/BmaTRgOInv5H71S1gXKrCTrzsRx6hhR3dpaNBwaFI3U5Irg9YbIk2saK82iBHWhHbb6YLwPY2xnGHs1yvlbaL7WAu/1yBuSLFDiXV9du1ZeS/pxiszBERdYwBIvY31lJzlyvSuQrcPsxRnA4s6cygvhpdQJweaO8wB7Sg9khfyM9mB1yTY+rNDEGFt75KVzlKV4fSDOJ8AksWjYI1wpTkBXo+2DgjJYspyna7HI0ptPuNnMnxnBr+qyvFUzLBKZZySaNzEvYEzTlJ68d/pYXQfgipuwoqfJEllkTMJIzNspB53iKincxJylzdB6b8fJZkFXlHuPI1sP07DLx2IFurEh5DYWvEJABn4ss5Z6n9ittVm+klWMxTBpDvVaCOkURJEyRKpAyYv+3OgbtA49Uk1lnJ3oYgbKj5a2hmVFphsIEXmAuD3DHqEKqzKnLYQy88diaIvceq1FboLfh6KSTZGVYopBQYfWxVMDUvLAXWX2+WcrPERL03KEN/UFeKYDXgzud/F5V2XMfp9mow2Ww2Vz9G0J6uKyUIwUpKzjrkQ40wVXCUwVjRW0Y4VIFTndGijH2g9cCe8miBZ+Ws/FWbnkUfC29lfWIqXlfAW9lXo/5srbHOvA6orKYbEh5CTX0Lm8w1trIpROGdtbqmq3zduTxeKlVNjai2v7g2lt1093UyBARza9aEiHlQ46SFzDytffV+qHUAlobTVYl4t0HjCm/SltN+EmNrW3OPHWIWzLLERpvA5LTh0m3e/a7J09HiNtcSg16SRW0skFqfLR6MLwB59ivdlQYEZZ3pTcvI+lOO4p+7fRGhqI2GH/uWzeNfdQM9TxBut+QuCb2ixRRa2lG1k8jvjZFYpR0VqutPrQMW8PjxJYT/Z72uVY+K2Tn/vU2RvHxwM2hAmV4O3DczNnbPVv9pqekdOzEyM5sDzCIJxHeg0htTAh6c4w4KZxJsq3JO4U2xbmCv8LNDSnzqFdWrtr+Tlm5anunxAl4MYUctjgdSfVpVXpIx8Po92O6tJI/K5T1YWHqbtTapOd88j8B9ZnAv6+QeAAAgABJREFUeNrs3XecXGW9+PHP9mzJbtomu+m991BCCb2DgqCgCFiu/pRrV4qAWGmKFcXexYIKinQIIRBKgPTeE5JNNslmN21Ltv/+IHoBQ0g2M/PMmfm8X6/LBS535pNJduZ855zzPCBJkiRJkiRJkiRJkiRJkiRJkiRJkiRJkiRJkiRJkiRJkiRJkiRJkiRJkiRJkiRJkiRJkiRJkiRJkiRJkiRJkiRJkiRJkiRJkiRJkiRJkiRJkiRJkiRJkiRJkiRJkiRJkiRJkiRJkiRJkiRJkiRJkiRJkiRJkiRJkiRJkiRJkiRJkiRJkiRJkiRJkiRJkiRJkiRJkiRJkiRJkiRJkiRJkiRJkiRJkiRJkiRJkiRJkiRJkiRJkiRJkiRJkiRJkiRJkiRJkiRJkiRJkiRJkiRJkiRJkiRJkiRJkiRJkiRJkiRJkiRJkiRJkiRJkiRJkiRJkiRJkiRJkiRJkiRJkiRJkiRJkiRJkiRJkiRJkiRJkiRJkiRJkiRJkiRJkiRJkiRJkiRJkiRJkiRJkiRJkiRJkiRJkiRJkiRJkiRJkiRJkiRJkiRJkiRJkiRJkiRJkiRJkiRJkiRJkiRJkiRJkiRJkiRJkiRJkiRJkiRJkiRJkiRJkiRJkiRJkiRJkiRJkiRJkiRJkiRJkiRJkiRJkiRJkiRJkiRJkiRJkiRJkiRJkiRJkiRJkiRJkiRJkiRJkiRJkiRJkiRJkiRJkiRJkiRJkiRJkiRJkiRJkiRJkiRJkiRJkiRJkiRJkiRJkiRJkiRJkiRJkiRJkiRJkiRJkiRJkiRJkiRJkiRJkiRJkiRJkiRJkiRJkiRJkiRJkiRJkiRJkiRJkiRJkiRJkiRJkiRJkiRJkiRJkiRJkiRJkiRJkiRJkiRJkiRJkiRJkiRJkiRJkiRJkiRJkiRJkiRJkiRJkiRJkiRJkiRJkiRJkiRJkiRJkiRJkiRJkiRJkiRJkiRJkiRJkiRJkiRJkiRJkiRJkiRJkiRJkiRJkiRJkiRJkiRJkiRJkiRJkiRJkiRJkiRJkiRJkiRJkiRJkiRJkiRJkiRJkiRJkiRJkiRJkiRJkiRJkiRJkiRJkiRJkiRJkiRJkiRJkiRJkiRJkiRJkiRJkiRJkiRJkiRJkiRJkiRJkiRJkiRJkiRJkiRJkiRJkiRJkiRJkiRJkiRJkiRJkiRJkiRJkiRJkiRJkiRJkiRJkiRJkiRJkiRJkiRJkiRJkiRJkiRJkiRJkiRJkiRJkiRJkiRJkiRJkiRJkiRJkiRJkiRJkiRJkiRJkiRJkiRJkiRJkiRJkiRJkiRJkiRJkiRJkiRJkiRJkiRJkiRJkiRJkiRJkiRJkiRJkiRJkiRJkiRJkiRJkiRJkiRJkiRJkiRJkiRJkiRJkiRJkiRJkiRJkiRJkiRJkiRJkiRJkiRJkiRJkiRJkiRJkiRJkiRJkiRJkiRJkiRJkiRJkiRJkiRJkiRJkiRJkiRJkiRJkiRJkiRJkiRJkiRJkiRJkiRJkiRJkiRJkiRJkiRJkiRJkiRJkiRJkiRJkiRJkiRJkiRJkiRJkiRJkiRJkiRJkiRJkiRJkiRJkiRJkiRJkiRJkiRJkiRJkiRJkiRJkiRJkiRJkiRJkiRJkiRJkiRJkiRJkiRJkiRJkiRJkiRJkiRJkiRJkiRJkiRJkiRJkiRJkiRJkiRJkiRJkiRJkiRJkiRJkiRJkiRJkiRJkiRJkiRJkiRJkiRJkiRJkiRJkiRJkiRJkiRJkiRJkiRJkiRJkiRJkiRJkiRJkiRJkiRJkiRJkiRJkiRJkiRJkiRJkiRJkiRJkiRJkiRJkiRJkiRJkiRJkiRJkiRJkiRJkiRJkiRJkiRJkiRJkiRJkiRJkiRJkiRJkiRJkiRJkiRJkiRJkiRJkiRJkiRJkiRJkiRJkiRJkiRJkiRJkiRJkiRJkiRJkiRJkiRJkiRJkiRJkiRJkiRJkiRJkiRJkiRJkiRJkiRJkiRJUrxkhA6QJCkyXvvUbCeTnNf920yy/+u/yz7iT9h2Wmh/079roe11/9RM23+KJEnSIXAAliQJcigBoJDC1/3vdrIpIQuAbPru/7t2iih73f9vMaVveKx2culF3hGNpRk0so2mN31OV7Hndf+0ldr9//dWKmjZ/3e7aSEDqKMOXve/d9Mc+kWWJCk0B2BJUmrKIoNcssggjwwyySWDQnoBhfQkkwJ6kUk2PcmnnU6UAO0UUkQ7/zcIZ1MSqc/KdnbvH4VfG3wzqKWODGA3+8igge200MY26mljO3XANuqAJlppp5F2WmmindbQvxRJkmIvSh/qkiS9WQaQTVdy6Eo+nehKFl3JpYjuZFNKATmUkU0nepK1/2Ll//trun4Ktu+/mPr1f91OHS1spZl6qmihmlqa2EkrO9lHAztpZicteMG1JCnC0vWjX5IUHRnk0okcOpFDHtn0oCtd6UYJPehEH7IoIpsicsmliEyKQgenkFraqKWJJmppoZZWNrOPHeymhp3sZTuNNNHMPprZR5PDsSQpuTkAS5KSRQaZ+y9W7kEhPSimCyWU0IUSulFMN4roShGZZO7/L/0UC6OdNtppo4129rKTWmrYQw272cVudrOLPeygjh007f8vHYwlSUnBQwdJUhhZFFBEJwoppBN9KaacXnShDwUUkEMBeXQij8zQoTosbTSyj0bqaaaeejazi21UsocK9lFHHfuopd57jCVJITgAS5LiLYNsssgii170pAc96E4pXelCD4rpTjfyySDDz6QU1k477TRQQzV72MEudlJFNTvYwXa20UorrQfY+EmSpJjyYEOSFHu5dKYLXehMCb3oQR/KKKMHnehELnme1xWvnStupIl97GMHW9nKZnawjd3sZTd72EVT6ERJUqpxAJYkHZkscsgll3z60IvelNOLbnShO90podhPGh2WdvbsX2Krmhq2UckWtrGZBppootlLpyVJR8LDEknS4SugO93pRjd60odyyuhDT3L3j8J+tihW2vePvU1sZzNbqWQz26mhhmqqqQ+dJ0mKGg9SJElvJ5d88ulEd/oyiL70oXT/2sxdyAkdp7TTzK79601XsYmNVLCJavbRQIMXTUuSDs4BWJL0ZhlkkEUPelNGKeX0pQ/llNOVbLLJDp0nvU4zrbSwk0oq2UwFlVSxlS3soJV2F9WSJL2RA7AkCSCfIoroTC8GMZB+9KEbJRRTRG7oNOkwNFG7/y7izWxiA+vZxl5qqaUhdJokKTwHYElKTxlkkUVnyulPH3ozkHJ605vOZJIVOk6KkVba2MsWtlDJBrawmY1UspdWWj07LEnpyAFYktJJ3v71mcsYxgAG04ciiigkL3SYlACN1FFLLZtZx6usZivV7KKGxtBhkqREcQCWpNT22rrMvRjEEPoxgHJ60ZvOobOkJLCXLWyjklfZxFrWs23/mtOSpJTlACxJqaiAckoppS8jGMxQupBPgXfzSm+hiXoa2MUa1rGSCqqootJtliQp9TgAS1JqyCGfAkoZxjCG0pde9KSHlzZLHdDIDrazjQrWsJrVVFFPg2eGJSkVOABLUpRl0JM+9KcvgxnMUMrpRJ6LWEkx0koj+6hkDetYRwUb2cx2l8+SpOhyAJakqOlECUX0ZQijGE5vutGTotBRUhqoZTs1bGEVy1lLBbXsZl/oKEnS4XAAlqQoyCSLbgxkCIMYxDD6UU422aGzpDTVQguVbGI161nPWjZQTRttobMkSW/HAViSklcW3ehGT4YxmjH0o4SuFIaOkvQGdexkN+tYyXJWs50aamgNHSVJOjAHYElKLhnkkEc/BjGKoQxiIH3J991aioB2GqhgA+tZw3LWs4lGmr1jWJKSiYdUkpQcsimnF30YyXDG0ZsCil3MSoqoVvZQzxYWs4oVbGYblbSEjpIkOQBLUlgFdKKcsYxkBAPpS7n39UoppoVKKtjASlawhEr2ub+wJIXjACxJIfRkIH0ZyRhG0o8C8skMnSQprtpooJ5NrGApK6hgA9tDJ0lS+nEAlqREyaWY7gxjNOMZTG/KyAudJCmIRrayhXUsYhmrqWYPTaGTJCk9OABLUnxlkEtfhjOcYYxiLMXkeG+vJABaaWYPS1jOalaxigqaXDRLkuLJAViS4qOAHpQyhgmMpR896R46SFJSq2Y7m1jCQpZSxQ7vFJakeHAAlqRYyiKXgYxlOCMZxTAKPdsr6bC0UsdqlrOCVSxhA03uKixJseMALEmx0Ik+lDOCSUykL10pDh0kKfL2sJMKFjCflVRQSWPoIEmKPgdgSeq4bDpRxmjGMY7hDKYkdJCklLSb1axlMYtZxlb2uaewJHWUA7AkdUQvBjOISUxkBCUUuYmRpLhro5bdrGQB81nPOraFDpKk6HEAlqRDV0gJ/TmWiQxlMGWOvZKCaGMr61jDAl5iI7upCx0kSVHhACxJby+XAYxiOJOYRG8KyAkdJElAM/VsYT7zWcVyXnU3YUl6Ow7AkvTWutGd0RzFRAbT14WtJCWtPVSwjgXMYRnV1ITOkaRk5QAsSW+WSScGMI7xTGAiPcnxvVJSJLTTzHYWsJBFLGcdDbSFTpKk5OJBnST9n1J6M4KpHEVvetI5dI4kddBedlDBHGazki1Uhc6RpGThACxJWeQzgMlMYiyjKSMrdJAkxUgrW1nGEuYzj1dpoDV0kCSF5QAsKZ11ZiCDmcoJDKYLhaFzJClO6tjFOp5nNuvYwN7QOZIUigOwpHRURDcmcxxjGcZA13SWlDaa2cBqlvAi86ihNnSOJCWaA7CkdJJNP0YyiaOZQClFoXMkKZBaqljIK8xnBZtoCZ0jSYniACwpHeTRnf6cwFSGMoiS0DmSlCR2s541zOZ5NlJNY+gcSYo3B2BJqa2IkUxkMlMZQqHLW0nSAbRSx1pmM48FrPDCaEmpzAFYUmoqpozRHM9U+tPXwVeSDkErFWxkNi+ynC3sCZ0jSbHnACwptWTTlXEcw1FMoD+5oXMkKYKa2cxc5vAyi9npHcKSUokDsKRU0Z2BjOZkjqGM0tAxkpQCqtjKyzzDMjZQHTpGkmLBAVhS1HWiOxM4nqMYR7nvapIUY+1Uspg5vMBCqtkXOkeSjoSHipKiqxvDmMhJHE1PV3aWpDjbzXZe4VkWsJqa0DGS1DEOwJKip4BuTGYakxlBn9AxkpRmNrOSecxiLjU0hI6RpMPjACwpSooYwwRO4Dj6UBA6RpLSWD2beZaXWchSN06SFB0OwJKiIJdeDOM0pjKMPm5qJElJopXNrGY2M1jNNppC50jS23EAlpTcshnGMRzDiQwl3/csSUpC7TSwhud4mZdZ7bZJkpKZB5OSklVPhnAUZzCWcvJDx0iS3lYDlSxhOnNYy/bQMZJ0IA7AkpJNNt04lqkcwyS6+S4lSRHTTg3zeZnZvESN54MlJRcPLSUlj1yGMpZTOIm+bmskSRG3mwqeZSZLWOPdwZKShQOwpGRQTF/OYCqTGOYSV5KUQlpZzXxmM50K9oSOkSQHYElhdWM8R3M6E+hOTugYSVJcNFPNQp7iFRZREzpGUjpzAJYURjaljOV0jmMkPUPHSJISYjsreJGnWEKVdwdLCsEBWFKiZdCX4ziWaYymMHSMJCnh6ljGLF7iRSpoDx0jKb04AEtKnHz6cjSncAxDKAodI0kKqpa1vMxMXqGChtAxktKFA7CkRMhjAMdxMicy0Dt9JUn/0cwGnuMZXuRVGkPHSEp9DsCS4quAoRzDOUymFwWhYyRJSamebczjMV5mDfWhYySlMgdgSfGSz0BO4VSmMMj3GknS22pnPXN5mpls8KJoSfHhQamk2CtgBEdzBsdRSl7oGElSpDRSxYtM5yVWsi90jKRU4wAsKZYK6c9JnMUkBpAZOkaSFFltrGcB03mGjdSFjpGUOhyAJcVGLiM5jlM5kZ4ucyVJiolmtvMcT/MiK2gKHSMpFTgASzpSRfTnRM5mAgPJCh0jSUo5rWxgIY/zHBupDR0jKdocgCV1XBbDOYWTOYFyR19JUly1UsnzzOQp1tEaOkZSVDkAS+qITgxgCucylQFe8CxJSpgmNvAyjzKXV10iS9LhcwCWdHiyKeVEzuIkBpMdOkaSlJZaWMezPMFzVNESOkZSlDgASzp0vZnCuZxEfzqHTpEkpb29bORZHmUuW0KnSIoKB2BJby+DrozlQqYynqLQMZIkvU4ti5jNAyxhJ+2hYyQlOwdgSQfXmfGcwlmMp0voFEmS3sIuFvEEM1nE3tApkpKZA7Ckt1LIAE7nPMbRJ3SKJEmHYDOLeYSneJW60CmSkpMDsKT/lkl/TuV0TqWnC11JkiKlhe08zVM8zUbaQsdISjYOwJLeqDfjuYgTGUKn0CmSJHXQPtbyHP9kkQtkSXo9B2BJ/1bIZM7kDCaSHzpFkqQYaGAB03mSeV4SLek1DsCSoBPDmcYFTKJX6BRJkmJsG/N5iFmsYl/oFEmhOQBL6S2LUk7hXE5kcOgUSZLiaB3P8TjPsJXW0CmSwnEAltJXNyZzFucwmMLQKZIkJUA963iUJ5hHTegUSWE4AEvpKJ8hnMtZTKZb6BRJkhKshnk8waOspSF0iqREcwCW0k0/jucczqSMrNApkiQF0spWnuQxXmBT6BRJieQALKWProzmIk5hNAWhUyRJSgL1LGMm/2QZO0OnSEoMB2ApHWQxmLM5m+O95FmSpDep4QUe53HWuTyWlPocgKVUV84ELuEkBpETOkWSpCTVzHqe5T4WUhk6RVI8OQBLqasTwzmX8zjKS54lSToE9czhER5hFY2hUyTFhwOwlJr6cDwXcwK9XepKkqTD0MpmnuFBXmBz6BRJsecALKWaIkZxHmcziU6hUyRJiqh9zOdxHmE5taFTJMWSA7CUSvpxMhdxIqVkhk6RJCni2qjiOf7JM26VJKUOB2ApNXRmFO/idMZ53leSpBjax2Ke4h8sZ2/oFElHzgFYir6+nMZ5nEZp6BBJklJUFTN4hBlUhA6RdGQcgKUoK2IsF3Auo8gPnSJJUoprYDmP8hBLvC9Yii4HYCmqenIa7+BMz/tKkpRAVTzJg8xge+gQSR3hACxFTx5jOYeLGElR6BRJktJQLSv4J4+xxP2CpahxAJaipQcn8k7OoF/oEEmS0twmpvMvnmNH6BBJh84BWIqKTEZyBhczmc6hUyRJEgB7mcf9PM0yWkOnSDoUDsBSFJRwFBdzKiP9mZUkKcm0s5rp3M8cdodOkfR2PJiWkl1/TuU9HE/X0CGSJOkt7eQF7mc6G0OHSDoYB2ApeeUzmgu4kJFuciRJUgQ0sowHeIhlNIROkXRgDsBScirhVN7JefT0p1SSpAhpZzuP8C+e9oJoKRl5aC0lm0wGcjqXMYUuoVMkSVKH7GIu9/IUG2gLnSLp9RyApWSSx0TexbmMISt0iiRJOiKtLOVh7nO3YCmZOABLyaI707iY0+kdOkSSJMVIO1t4kvt5gerQKZLAAVhKBpn05QIu5HiKQqdIkqSYq+UFHuAhKrwgWgrNAVgKK5uJXMC7GUZu6BRJkhQ3Tazm7zzEAlpCp0jpzAFYCqcLU3kPpzEwdIgkSUqIDczgb8xmV+gQKV05AEthlHEW7+YUOocOkSRJCbWXmfydJ9gaOkRKRw7AUqJlM4xzuIxxFIROkSRJQdSzmHt5jNVeEC0llgOwlEh5TOYSLmQwmaFTJElSUG2s4wHuY57bJEmJ4wAsJUoXpvJeznSbI0mS9B9beJK/eFewlCgOwFIilHEWl3AyJaFDJElS0tnNM9znXcFSIjgAS/E2nDO5inHkhw6RJElJq4HF/J4nWRU6REptDsBS/OQwist4B2O841eSJL2tNpbyIPeynObQKVKqcgCW4iOfo3kP76SfP2WSJOmQtbOJf/E3XqEhdIqUijw0l2KvG8fwIaZRHjpEkiRFUiWz+A0vUxM6REo1DsBSbPXiTC5nGkWhQyRJUqTVMos/8STbQodIqcQBWIqdQZzFVYx3+JUkSTFRyyJ+zxOsDx0ipQoHYCkWMhnKu3gv48gKnSJJklJKK4v5C/9gDW2hU6TocwCWjlQuo3k3lzKI7NApkiQpJbWwnr/yd5bRFDpFijYHYOlIdGICH+AshoQOkSRJKW8tT/A7FrIvdIgUXQ7AUkflM433cRa9Q4dIkqS0sYUn+DOz3CRJ6hgHYKkjunECl3MGPUKHSJKktLODJ/kDL7lJknT4HIClw1XCWVzFKa71LEmSgqllJr/nCXaHDpGixQFYOhxlnMt7mUpx6BBJkpT29jCbv/AoW0OHSNHhACwdqlLeyZUcT07oEEmSpP2aeYE/8AA7QodI0eAALB2KQbyTy5hIfugQSZKkN2lgDn/lYdaHDpGSnwOw9Hb68x7ex0SyQodIkiS9hVYW8Gf+xsbQIVJycwCWDmYQF3EVY7zsWZIkJb1mlvJ7HmRN6BApeTkASweWyXAu5wLGkR06RZIk6RC1sJQH+SOraAudIiUjB2DpQMZwKZczxJ8QSZIUOe2s5U/8laWhQ6Tk4+G99EaZjOBy3s0IfzokSVJktbOSv/MnVnomWHo9D/Gl1xvF+3gvw0JnSJIkxcBq/sKfWR46Q0oeDsDSazIZyft4D8P9qZAkSSmjnVX8jT+zwjPBEjgASwAZDOf9XMbw0CGSJElxsIp7+SOraA8dIoXmAKx0l8FoLuV9DCEzdIokSVKctLGWP/NXljkEK705ACudZTKMK7zsWZIkpYXXLoe+h9VeDq305WG/0pdbHUmSpHTjFklKcx76Kz0N5Are71ZHkiQpDbWzkj9yDxtCh0iJ5+G/0s9ALuYKJnjPryRJSlttLOQe7ncIVrpxAFZ6GcS7uJzx5IQOkSRJCqyZRfyJf7A+dIiUOA7ASh+lvJ8rmUBW6BBJkqQk0cpCfsO9VIUOkRLDAVjpoYxz+TDHkBs6RJIkKck08gq/5lG2hg6R4s8BWKmvhHfxQY5z+JUUI+37Pz3baHndfpqttP7Xf9nSoa1GMsj+r8/n7NetW5Dxn39q93NcUow08SK/5EF2hw6R4ssPTqW2rpzOhziZwtAhkiKihT20kcEeGgDYRRMZQB11ALSznVoAMqhj2+sG4Gp2vemx2qlmVwc+aXMpJ/sN/yaDHhS/7p96Ubj/mYvouf8ZCikE2smlCwD5FNNOJsVveixJeiu1PMtveIqdoUOk+HEAVuoq4BQ+zil0Dh0iKbA22mimlTaaaKOVJjLYzh7a2U4d7WyjDqhhJ9DMHtqAPTSQAeykGYB66kP/Mt5GAQUA5NAVaCefYiCTYnKArnQDCulFBoX0JINietJOLllkkksmWeSQ6fr4Utrby0x+ysykf8+TOsgBWKmpEyfxAc7bfx5EUnpoBxrZRQtVNLObBurYTTPbaKKGvTSynWZqqeLfFye//q/tR/TcyS8DyCT7TX8tpYgcepJHZ7qRSy9yKKGQfErIoZRsupCHxwtSetnFI/yaWTSFDpFizw80pZ5OTOBDXEKP0CGS4qKFZhpooYEmGqllG7upYi/bqGMbjdTRyh5aqKeRfR6+dUAuncijgGyKyaKQPHpRSC86U0oJvSiiEznkk00+OV5gLaWo7dzPb1nIvtAhUmw5ACu1ZDKK/8d7KA8dIikG2mijnVa2U8sOathDFQ1so5Yq6qhiNztpo5X2/f+l4imDTDLJIItMSinc/z9F9CKfUorpRg+K6EnW/v9SUvRV8jd+zvIOLecnJSkHYKWSEVzJZQzxz7UUSU00UEcd9dSxk21UUs1WtrKHOpqpp4HG/QtTKdnkk0c+BeRQSDFllNGdcnrRlUIKKKSQfFfilyKpnbXcyx9YGTpEihUHBaWKAbyX9zHeP9NSJLTSQist1FBFJdvZyXaq2E011eyimhbaPeMQcZlkkE13utCd7pRQSk+60pNySulGNllkkxU6UtIhaGcRf+KPbA4dIsWCw4JSQSkX8REmeyealMQa2Msu9rCHajazlQq2UkkdjeyjkaYD7KGrVJNFLnl0Io9CyimjL2X0oSsllNCFzuSHDpT0llqYw694gKrQIdKRcgBW1JVwDh/iNHJCh0h6nSaaaGIf29nMFjazZf/53Z3s3L+LrvSafLr95xxxb/rQmz70pBO55HrZtJRUmpnBb3iM3aFDpCPhAKwoy+M0PsLZFIYOkQTUUUU126mmklfZwmYqqd8/CrtAlQ5Fxv6xt4By+tCbAZTTnZ50p9R3eikp1PE4v2QGjaFDpI5yAFZUZXMMH+JddA8dIqWpNuqpp4EaKniVjWygmp3sosZzA4qpErrRha50ZyD9GUBfupFPAQWuNC0FUs0/+A0v0xI6ROoIB2BF01iu5Eo3O5ISqp126qlkG1vZzBYq2MQmdtBKC82h45QWcsgmix70ox996U0fyuhFOQVkeEQjJVQlf+APLAmdIR0+Py4UPYN5L1cwKnSGlBaa2cMeaqlgAxvYwCZ2soe97A0dJgGd6UwxXenHQAYykL4UUUyxq0JICbGce/gL60JnSIfHAVjR0o1381Gm+CdXips2WmhhK6+ykY1UUEEFm9lDq9sSKallkkUxfehLX/rSn/4MoIxssr1UWoqbdubyC/5OTegQ6dA5Rig6OnMm/8vxbpQhxUEDu9jBTtaynpVsZDu11FIfOkvqoAKKKKIn/RnBIIbQlR508fNDioMGXuDHPOmVQYoKB2BFQw7H8TEuoDh0iJQyWmmiiRpWs5o1bGY7m6ikIXSWFAf5lNOPnvRhKMMYRjdyySUrdJaUMvbwED/jRdeDUBQ4ACsKJvAhLqMsdIaUAtqpYRuVbGYV61jFVuqpdzsLpY08CiigjOEMZjh9KKcX3TwakmJgK/fyGxaGzpDejm/5Snb9+RDvY0ToDCnCWqinlh0sYR0rqWAblewKHSUlgS6U04u+jGAwY+lBEQVkh46SImwlf+Y3bAydIR2MA7CSWQ/eyceZ4gImUge0s5cNbOZVVrOWZeyggSYXspIOIJNc8unBaIYwjAH0YSCdPUaSOqCNufyUf7EjdIj0VnxzV7Iq5BQ+wckUhA6RIqWW3VTzKotYxiYqqWZn6CQpYrrSnXL6MZrxDKA7JRSFTpIipZ5nuJuZ1IUOkQ7EAVjJKIOpfIx30C10iBQJ7bRSxWrWsZa1rGY1DbR4rlc6Qplkk88whjGEIQxmGKVkeeQkHZIaHuRnzKY9dIj0Zr6NK/kM54NczoDQGVLS28MOqlnJYpaxnhp2si90kpSiOtGVbgxiNOMYQXd6uCuB9LZe5U/8llWhM6Q3cgBWcunBpfw/JoTOkJJWG03sZSWrWM1K1rOBPZ7rlRIok2IGMogRDGM4I+hMritVSG9pIT/nr94RrGTiAKzkUcgZfIoT6BQ6REpCjWxjKxtYyBJWUcNed+yVAsunM90YzlgmMJAyepEXOklKQvt4nh8y3TuClSwcgJUcsjiaq3knXUKHSEllHw1sZQWLWMarbKLSu6mkJJRBOf0YwGjGM5Iy8v0qV3qDXfyLn/AKraFDJAdgJYdhXMmH6RM6Q0oa9VTwKmuYx1LWU0u9lzlLEZBJAUUMYgyTGcoA+rqTgfQfm/k1f2B16AzJAVih9eBiPspk76CSaGA3VSzhFZZTwRZqQgdJ6rBu9KYvoziasZRSQn7oICm4NubxC+73jmCF5QCskHI4g6s5m9zQIVJQLWxiKatYxmLWUktj6CBJMZNHEUMYx2iGM4Z+ZIcOkoJq4nF+wnSaQ4cofTkAK5QMxvExLqVH6BApkFaqqGIl85nPq1SyM3SQpLjqSjkDmMQkRlBKKVmhg6RAdvBXfsZiV7VQGA7ACqOc9/NxhoTOkAJopo5lzGc5S1lJFS2hgyQlVDaljGAMo5jEaArJCR0kBbCWn/JHKkNnKB05ACvxijiXz3CMH/lKM/VspoKlvMhStrPDy7+kNJdDD3oyhuMYQ1/6uGCW0kwzL/MDHqU2dIjSjQOwEiuLo/gk76AkdIiUIO3UU8ViFrGI5aylPnSQpKRTwBBGMZ7xjKOUAo/OlDZ28yA/Yo7bIymRfItVIg3ig3yIfqEzpISoZwNrWcBLLKWGWjcyknRQmRTRjTEcy0SGMNAzwkoTm/gNv2V96AylDwdgJUpXLuCTTHHRD6W4dvZSzRJeYiFr2UBD6CBJkZPPQIYwgWMZS3c6e7SmFNfKXH7EQy4GqcTwLVWJkM3xfJazKAwdIsVRI+tZwWLmsJAd1Lu6paQjkkEBPZjAUYxjJIPICx0kxVEdT/B9XnBhSMWfA7Dibygf4Up6h86Q4mQv21jJS8xhPRUu5iEp5oroyyCO4lhGUUrn0DlSnGzhD/ySNaEzlOocgBVfxVzCp5jonzSloBa2sIRFzOcVKmn0jK+kuMogl34cxQTGM5beZIcOkmKunQX8kPvYEzpEqcyxRPGTwwl8irO98FkpppVKXmUus1nIVmpC50hKO90oYwJTmcIAyl1bQymmjsf5Ic+7WaDixQFY8TKQj3MV5aEzpJhppZ41zOVllrKMXaFzJKW9LoxmDMcwhaEUOAgrhVTye37KhtAZSk0OwIqHYt7J55hIZugQKSb2sY41vMBLrKKGfaFzJOl1OtGN4RzL8QxlMJ1C50gx0c4r/ICHvBhasecArFjLYiqf5AKKQodIR6yJXSxnNi+zjPU0hs6RpIPIYxCjOYapjKILuaFzpCNWy0P8iNm0hg5RanEAVmz148N8hL6hM6QjVM9ylvAyL7CBvX70SoqMLDozkOM5hrGMoiB0jnSEKvglv2ZT6AylEgdgxU4R5/JJTvTCZ0VYA1Us33+x86u0hc6RpA7KZMD+C6NHUUp+6Bypw9p4jh/yCPWhQ5QqHIAVK5P4FO/xwmdFVi3LWcALvMwGGtzSSFJKyCCfgRzD8UxklJ/Riqy9/IWfMD90hlKDA7BioYwr+CjDQ2dIHdDEVtYynRdZyxZaQudIUhxk05shHMcZDKHM+4MVSav4BfewNXSGos8BWEcql1P4HKeTEzpEOkz7WM/zvMwcVtAQOkaSEiCfkRzFMZzAINeLVuQ08xTfYyZNoUMUbQ7AOjLD+ThXUBo6QzoM7WxhPc/zDCuodFMjSWmnE+WM5GROZAi9PBZUpFRxDz9lVegMRZlveuq4Ii7ms0wKnSEdsn3s4EWeZy5L2BU6RpIC68IEJnICx9HD88GKkPl8n/upDZ2hqHIAVsdkMoXPcaEbLCgialnDAp5iNlv9yJSk1ymijKmczkSGukyWIqKeB/gec92tQR3hAKyO6MkHuZqBoTOkt9XGTlbzDLNYznrXdpakt5DBIEYxjZMZRlc3NFQEbOAn/Iaq0BmKHgdgHa5szuQaprnolZJcG1tZwGyeZhm7aQ2dI0kRkEUJozmVqUykzDFYSa6FGXyXGTSHDlG0OADr8Azmf3k/ZaEzpIPYx2aW8Bgvs56doWMkKYK6MohjOIex9PHuYCW1rfyRH7MudIaixAFYh66Ai/ksk/1To6TVxFpm8zzPsNFNEiTpCOXSn5M5gakMce9gJa125vF97qc+dIiiwlFGh2oSn+JiSkJnSAe0k428wiMsYrMbG0lSDHWiD+M5j2PpR5fQMdIB7eZ+fsj80BmKBgdgHYpuXM4nGBk6QzqABpbyDM8wj63e6StJcZJJXyYxjZMZQ37oGOkAVnA3f6ImdIaSnwOw3k4mx/E5LiAvdIj0JtWs4mUeYxHbHH0lKQGy6MV4zuJYRtA9dIz0Jo08xPd40c2RdHAOwDq4Mj7I1fQPnSG9wU6W8ySzWMK20CmSlIZKGc80zmQUXUOnSG+wkZ/wW7aGzlAycwDWW8vhDK7hJLJDh0j/sZNFPM90FrDbb3glKaBMSpjIGZzAeMdgJZEWnuXbTHdzJL0VB2C9lf58lI/SK3SGtF81K3mKGazwe11JSiJljOQ0TveiaCWRbfyCX7AxdIaSkwOwDiSHC7iOY8gMHSIBe1jAs8xkDns96ytJSSiTzhzFKZzERIpDx0hAGy/zLR7yPLD+mwOw/tsIPsHlfo+rJLCTDczgYZZ71leSIqCMUZzPaQz0omglgWr+xN2sDJ2hZOMArDfqxCV8nsmhM5T2GlnELGbyMttpDx0jSTpkGfTkGE5hGuPdQULBzeO73Me+0BlKJg7Aer1RfJr3URI6Q2mtnjW8wsO8QqWbG0lSRGVRztGcz9EMpSB0jNLabv7MXSwPnaHk4QCsf+vMu/k0E0NnKI01UsmzPM7zbPJeX0lKAZn04wTO5iTKPRusgBZwF39nb+gMJQcHYL1mLNfyHvJDZyhNtbOB+TzMM2yhIXSMJCmm8unNyZzPJAZ65KlAGvgbd7IkdIaSgW9DgkLeyxcYFTpDaamdaubyGLNY5ugrSSksn9FM4xym0N3jTwWxnO/wF+pCZyg034A0nmt5F4WhM5SGapnLLB5hiRclSVKa6MxYzmMaUygKnaI0VMc/uJNFoTMUlgNweivmUj7D2NAZSjt1bOApHmaR2xtJUhoqYzznczoD/QJeCbeEH/BX9oTOUDgOwOlsHF/gMjqFzlBaaaOCp3mKp9jqQleSlMYyKeN0TudU+pIZOkZpZR/38h0Wh85QKA7A6aoz7+Ea7/tVQm1lAf9iFmvcj0+SBEAnhjKNdzKRstApSivL+TZ/8xas9OQAnJ7Gch2XuC+fEqaeRTzG08x16QlJ0n8pZAqncg7jPTZRwtRzH99yXeh05ACcfjpzGZ9jdOgMpYlWVvMC/2QOW2kPHSNJSloZlHEUF3E8w8gKHaM0sYzvca/ngdONA3C6GccXeI/fryoB2qnmBR5mFqtoDR0jSYqELIYzjfM53s2SlBD1/M37gdONby3pJJ/3ch0jQ2coDdSziJk8yGK/VZUkHbbOjOMdnOIl0UqIFXyLv9AQOkOJ4gCcPkbyWS6nc+gMpbhWKniWf/IKm0KnSJIirR9HcxEn0ddLohVne/kT32dF6AwlhgNwesjnXVzDpNAZSnF7eIkneYi1NIVOkSSlhFyGcAFncizFoVOU4ubzbf7heeB04ACcDgZyLe+nJHSGUlgTa3iKB1lAVegUSVLKKWUi7+B0hpIbOkUpbDd/5E42hM5QvDkAp7ocLuA6pobOUAqr4Rke50k20BY6RZKUsjIZyJmczcl0C52iFDabb/EgLaEzFE8OwKmtH5/hQ35QKE4aWcYM7mcpu0OnSJLSQgljuJjTGE1e6BSlqBp+zt1UhM5Q/DgAp65MzuJaTiEzdIhSUDvVzOQRZrDR3X0lSQmVQX9O40JOcKskxUUbM7mTJ7yyLVX5tpGqevJhPkNZ6AyloEYW8iQPs8QtjiRJwRQzhvM5kwmeC1YcbOUH/JrtoTMUDw7AqSiDY7mZM8kJHaKUU8UL3M/TbnEkSUoK/TiVizme0tAhSjnNPMk3eMkr3VKPA3DqKeEDfJZBoTOUYppZwnT+xXzqQqdIkvQ6hUzinZzBWL/6V4yt5/v8zpVOUo0DcKoZzxe5kILQGUop23mZvzPLdZ4lSUkqk4FM490cQ8/QKUop9TzAHSwKnaFYcgBOJflcwg2MDp2hFNLGCp7gQWZTHzpFkqS3UcBU3sFZjHQJUMXQMm7nPhpCZyhWHIBTx1A+zZV0CZ2hlLGTeTzAE6x1NzxJUmRkM4SzuJDJdA2dopSxiz9wF2tCZyg2HIBTQzZncjPHhc5QimhjC4/wEM9614skKZJKOIkLOI8+HusqRl7kGzzpSYFU4JtCKijjI3ySXqEzlBIaWMhDPMQKGkOnSJJ0BPIYwbs4j3Hkh05RStjGj/glW0Nn6Eg5AEffVL7E2WSHzlAKqOI5/sHTVIQOkSQpRvpyKu/iRDdKUgy08Di3MDt0ho6MA3C0FfJ+rmVo6AylgJU8zv3McZMjSVLKKeQoLuZsRoQOUQpYw5380eOlKHMAjrJRXMNlFIbOUMTVsYj7eIwVtIZOkSQpTrIYyTlcwniPnHSE6riXb7M8dIY6ygE4qnK4gC8xOXSGIq6Gp/gnT1IVOkSSpAQo5Uwu4nS6hQ5RxM3jFh6iOXSGOsIBOJp68hk+RvfQGYqwFtbxOH9nAXtCp0iSlEDFTOTdnM1gV1DREajmZ/yA7aEzdPgcgKPoWG7mHLJCZyiympnLP3mQFbSFTpEkKYBMRvIOLmIKOaFTFFmtPMY3eCl0hg6XA3DUdOb9fMFlr9RhNbzIX5jJZtpDp0iSFFAGfTiF93KcF0Srw9bwHf7I3tAZOhwOwNEymC/yfgpCZyiitvAw9/OCFz1LkrRfMcdzMefTO3SIIqqeP3IH60Jn6NA5AEdHNmfxJab6e6YOaGMZD/NnVrIvdIokSUmmEyN4H+czmszQKYqgdmZzC0/QEjpEh8ZhKiq6czWfoCx0hiKonsXcw+OsDh0iSVISG8bZXME4r7RTB2zlbn5CdegMHQoH4GiYwg28g9zQGYqc3czg725zJEnSISnlTN7NaZSEDlHkNPEgtzM3dIbengNw8uvERdzE2NAZipwKpvNXnveOX0mSDkMxJ3ApZ9A3dIgiZwm38k9vN0t2DsDJrpzP8VG6hM5QpLSzmof4M4tpDJ0iSVIE5TGO93EBwzxW1mHZxS/4HpWhM3Qw/lAns0yO5iuc5Y6/OgzNLOI+HmCVSzFIknQEshnOhVzCePcK1mFo5Qm+xiu0hQ7RW3EATl55fIAvMih0hiKkgZe4l4eoCB0iSVKK6MsFXMax5IcOUYSs5w5+53V4ycoBOFkN4FquonPoDEXGbp7hz8xge+gQSZJSTE9O432c7NJYOmR7+T138mroDB2IA3AyyuIUbuRUf3d0iKp4lL/zjMtdSZIUJ8WczLs5l9LQIYqIdp7mNmbSGjpEb+aIlXw680GupV/oDEXERh7mr7xEQ+gQSZJSXD7Hcinn0z90iCJiE3fyW/aGztAbOQAnmyFcz/soCp2hCGhjLf/k78xzuStJkhIkm8m8m4sYQmboFEVALX/mm6wNnaHXcwBOJhmcxleYFjpDEdDKMv7Bn1nthTWSJCVYFsN4H+9itDt16BDM4mvMoD10hv7NATh5lPABPs+A0BlKeo0s4x4eYL0L7EuSFEgmg7iQKxhNXugUJb1X+S6/Y3foDL3GAThZDOKLXEFB6AwluSZmcy8Psil0iCRJoh/v4DKmkhs6REmunnu4g/WhMwQOwMkhi9O4mRO8l0QHtZe5/IFH2Bo6RJIk/UcZ53ElR1MYOkRJrY3n+QYzvHktPAfg8DrzAa7x0mcdVB1P83uecZdfSZKSUE9O53JOdQjWQb3Kt/mdq0KH5gAc2lCu4/1e+qyDqGUmv2EGu0KHSJKkt9SF0/gQp7iXhw6inj/yLdaEzkhvDsBhncZXvfRZB1HNk/zN4VeSpEjowmm8hzPpHjpESauN5/kqM0JnpDMH4HDyuZIbGBg6Q0mrmsf4Hc9THzpEkiQdsgJO4AOc4xCst7SB2/kDDaEz0pUDcCgD+AIf8iIZvYUqpvMbXqAudIgkSTpshRzPhziD0tAhSlK1/Ibv8GrojPTkABzG0dzGGaEjlKR28gi/51n2hQ6RJEkd1omTuIrz6Bo6RElqOjfySuiIdJQVOiAN5fF+7uKo0BlKSlX8i5v4KctpCZ0iSZKOQAtreYLZZFPm6tA6gMGcym5WuDFSonkGONFK+Sz/S5fQGUpCO3mEP/CMZ34lSUohnTiZKz0TrAPaxY/5PlWhM9KLZ4ATazzf4cNueqT/soN/euZXkqQU9NqZ4BfJptxjQL1JJ45jOMvZFjoknTgAJ04OF/FdTnXTI71JDffzFe5mJU2hUyRJUhw0sY7HmEMmfckPHaOkkskoplLFGtpCp6QLB+BE6cKnuJWhoTOUZKr5JzfxE1bQHDpFkiTFUTNreZzZZNPbM8F6g3JOBZZ6G1xiOAAnxhBu5VOUhM5QUtnBA3yJH7PS4VeSpLTQzDoe52Uvh9abFHIifVjCztAh6cBFsBJhGrdxYugIJZUaHuV3POcW6JIkpaF8TuQDnEu30CFKKs9xI7NCR6Q+zwDHWyeu4vuMD52hJLKHp7iZH7LCBa8kSUpLLazjCRZRQi/yQscoafTnVPa6JGq8eQY4vkq5ho9THDpDSaOep/g9j7M3dIgkSQquM2dzFad7ObT+Yw8/5dtujBRPngGOp7F8lw+51p/228fT3MT3mOdqz5IkCWhiGY+xiO6Ukx06Rkkhj6kMZynbQ4ekLgfgeMniPL7P6W56JAAaeYHb+SZzXN9PkiS9zj6W8Thr6EK5R+bitY2RjmEL62gPnZKa/DGLjyKu5nZGhs5QUmjjZb7BrcyiLnSKJElKQnXM51HW04syT54I6M3JtLLEqwbjwQE4HnrzFb5A99AZSgKtLOZObmWGw68kSTqIOuYynU2UU+oqPaKYaXRjoevGxJ4DcOxN4btc7op+AlZyNzfwGLtCh0iSpAjYxWyeYC9l9AidouByOZpRrKQydEiqcQCOrWzexfc40e/txCZ+yk3c54bmkiTpMOzkGWawlwGUhE5RYBkM5zi2s5q20CmpxAE4lgr4NLcyOHSGgtvBb/gif2KbixdIkqTD1E4VT/MMzQx2g6S014tTaGcBzaFDUocDcOwM4Ot8li6hMxRYNX/nJn7FJodfSZLUQe1U8hSzyaCvQ3CaK+QEerGE3aFDUoUDcKwcxfe4jNzQGQqqjse4mbtYQ2voFEmSFHGtbOAxFlJEX48x01oORzGaFWwJHZIaHIBjIZuLuIvjvPM3rTUyi6/xLRbTEjpFkiSliBZW8ygr6UZvskPHKJgMhnIiW70bOBYcgI9cER/jdgaFzlBArSzkdr7GSzSGTpEkSSmmkcU8QgW96ekuwWmslJNpYql7Ax8pB+Aj1Zsvcx1dQ2cooBX8iJt4kvrQIZIkKUXV8wqPs5NyN0hKY0WcTBcWuTfwkXEAPjIT+Y57/qa1Cn7JjdznTr+SJCnOdjGLmeyjH8WhUxRIDlMYyXK2hg6JMgfgI3E2d3GKl6KkrV3cyw38lm2hQyRJUprYzlO8SDYD6RQ6RUFkMoJjeJW1oUOiywG4o/L5CN9kVOgMBVLLdG7gbta52ZEkSUqgdjbxBPPpQrlrQ6epcqaxj6UuvNoxDsAd05Ub+RI9Q2coiFZm8zXuYJFbkkuSpACaWc2jrKYXvb0WMS114RTymce+0CFR5ADcESO4k4944UmaWsb3+RLP+4YjSZIC2sciHqOa3pSGTlEAuUxlEEuoDh0SPQ7Ah+9E7uI8v21LS1v4GTfwT9fekyRJSWAvz/E0DQykc+gUJVwmY5nIajaGDokaB+DDk82lfJfJoTMUwE7u43p+x/bQIZIkSf+xg6d5kVz6kR86RQnXnxPYwQraQodEiQPw4Sjik9xC/9AZSrgGnubL/IC1vr1IkqQk08YmnmApXelNTugYJVgPTqaVRTSFDokOB+BDV843+DwloTOUYG0s5Ha+wTyXvJIkSUmqmRU8RgV96ElG6BglVCHT6MF8akOHRIUD8KEaw3d5v4vNp51X+Sk38iT1oUMkSZIOqp65TKee/nQJnaKEymEKw1hMVeiQaHAAPjSn8CNO9/u0NLOLP3MDf2RH6BBJkqRDUsMzvEAWg9yvJK1kMJKjWMOG0CFR4AD89rJ5H99hfOgMJVQDM7iZu1nnXb+SJClC2qjgKRbTlT7eEZxW+nACNSz32PXtOAC/nc58htvoEzpDCdTOQr7JLcxzOQFJkhRBTazgcbbQm15ewZhGunMabS6I9XYcgA+uN1/ns+6sllYq+Dk38Dh1oUMkSZI6rJ45PEUjAygOnaKE6cQJ9GABe0OHJDMH4IMZxXe4woWv0sheHuBafu9dv5IkKQXU8DQv0olB5IVOUYLkMIUhLPJo9q05AL+VDE7kR5zpZSNpo4UXuYnvssY7JyRJUop4bY/g5fSmN5mhY5QQGYxiMivZFDokWTkAH1gW7+YHTAidoQRpZy138hVe9J4JSZKUYppYyhNUMYiuntpJE/2YxjZW0B46JBk5AB9IPldzO/1DZyhBdvI7rucf7A4dIkmSFBd7eJFngSHkh05RQnTnZBpZREvokOTjAPzfuvMlrqdr6AwlRCMzuZ6fsclvyCRJUgprZytPM5+e9CE7dIwSoJATKWIeDaFDko0D8JsN4Nv8j9+NpYllfIuvsoDm0CGSJElx18xqHmM7/SkNnaIEyOUYBjDXqxzfyAH4jabwfS7yVUkL2/kVX+QhtzuSJElppJ6XmEkLgygMnaK4y2Ico1lOZeiQZOKo93rncBcnhI5QAjTxGDfwM7aGDpEkSUq4Kp5iAV0Z6CyQBoZwDK+yJnRG8vAP/b9lcyXfZUToDCXAYm7jNha53ZEkSUpTbazlSSroR6/QKYq7Mk5iJ0s99n2NA/BrOvMpvk556AzF3Q5+zo08Qn3oEEmSpKDqeYVnaGYYBaFTFGclTKOVxW74CQ7Ar+nGV7mG4tAZirNmnuR6fuGFz5IkSQBU8TQL6Ul/p4IUV8CJFPOKa0I7AAMM5k4+QKfQGYqzFXyTW1hAa+gQSZKkpNHKap5kKwPoETpFcZXDZAaygJ2hQ0JzAB7PXa77nPL28Fuu4V/Uhg6RJElKOrXMZiZZDCcvdIri6LU1oReyLXRI6JchnWVwOj/l+NAZiqsWZnEDd7MldIgkSVLSquIpllBGXzJDpyiOhnA8q9kQOiOkdB6AM3k332dU6AzF1Ua+x028QkvoEEmSpKTWwgoeZy9DKAmdojgq4wQqWUF76JBQ0ncAzuP/cQf9Q2cojmq5n8/zV/aEDpEkSYqEWp7nOTozkNzQKYqbbkyjnkXpujJOug7AxdzEjXQPnaG4aWchX+LbrEvfb7ckSZIOWzubeZK1DKIXGaFjFCdFTCOfOTSGDgkhPQfg3tzK1RSGzlDcbOdnXMsz6flDLUmSdEQaWcSTtDDU4+WUlccx9GRuOi4Rm44D8HDu5AqyQ2coTpqZzhf5FTtCh0iSJEXWTp5hAaUMSMt5IR1kM5l+zE+/bZHS7w/0ZO7ifC/oSFnr+SZfZWG63tMgSZIUI62s4QmqGUrX0CmKiwzGMpYlVIYOSax0G4BP5y63PUpZe/kb1/J36kKHSJIkpYQ6XuQF8hnkDsEpahBHsZb1oTMSKZ0G4Awu4YeMDp2hOFnIzXw7vXc1kyRJirktPMl6BlMWOkRx0ZtpVLAidEbipM8AnMNH+Sb9QmcoLqr5Jdcxg6bQIZIkSSmniYXMoJ2hFIROURx0ZRp1LKQtdEhipMsA3JlP8xVKQ2coDtqYxY38hO2hQyRJklJWNU+znN70cy2dFNSZE2hjUXqcTEqPAbgHN3A9nUNnKA42831u5BUXvZIkSYqrVlbwBHUMozh0imIunxPJYwH1oUPiLx0G4N7czse8cT8FNfEI13EPu0OHSJIkpYW9PMdcujEoLaaI9JLNMfTiFfaGDom31P+jO4wfcmka/DrTz1pu5+ssS5e7FSRJkpJAGxt4giqG0i10imIsi4kMZw41oUPi/ctMbUfzQ870ToWUU8/fuJb70+EiDUmSpCTTwEu8SCFDyAmdopjKYASjWM6W0CHxlNoD8Cn8kOMcf1POUm7hjvTar0ySJCmpbGE6lQyiZ+gQxdhgjmJVKm8tmroDcCbv5IeMDZ2hGNvLPVzDIzSGDpEkSUprjczhWfIY5lo7KaacE9jIatpDh8RHqg7AmXyQbzEodIZibDE38+3UvihDkiQpMrbzJBsZQq/QIYqp7pzALham5gicmgNwPh/nG5SHzlBM7eSXXMtTtIQOkSRJ0n4tLGQG7QwnP3SKYqiE42lgcSoeeafiAFzAddxM19AZiqlXuJEfsS10hiRJkt6kmqdZzUD6hA5RDBUyjQxeoTl0SKyl3gDcna/waYpCZyiGdvIrruW5VPwGSpIkKQW0sJQZZDLM88ApJJejKWYuDaFDYivVBuByvs7/eiN+CmlnLjdwN9tDh0iSJOkgdjKTVQyi3D1YUkYux9CVudSGDoml1BqAB/F9Lk+xX1N6283Puc5zv5IkSRHQwjKeBkbSKXSKYiSTSQzhFXaFDomdVBoWx/EdLiQzdIZipJ1XuJEfe+5XkiQpMmp4hlUMoLfngVNEJqMYyuLUOSZPnQF4Cj/htNARipld/IrrmOW5X0mSpEhpYSkzyWS454FTxnAmsYDK0BmxkSoD8Gl8j2NDRyhG2pjjfb+SJEmRVcNMVjLQ+4FTRl8mso71oTNiITUG4HO4m/GhIxQju/mlaz5LkiRFWgvLmEGm9wOnjD4cz2rWhM44ctEfgLN4P3cyNHSGYqKdOVzvfb+SJEkpYCczWcEg7wdOEd05nhqW0h465MhEfQDO4grupF/oDMXEXn7tuV9JkqSU0cIyZpLDSLcpTQldOYHtLIn2CBztATifj3MrPUNnKCYWcxM/YFvoDEmSJMVQDU+znqH0Ch2iGCjiRBpYFOUTVlEegDvxWb5Kl9AZioE6/sA1TKc5dIgkSZJirJlFPEseI8gNnaIjVsA0mpgT3RE4ugNwN67nWopCZygGVvE17mBL6AxJkiTFSRVPso3hdA8doiOWy1TyWEBD6JCOieoA3JVv8GnyQ2foiDXwdz7Pw577lSRJSmktzOM5ihlKTugUHaFcjqOYF9kXOqQjojkAl/E1PuolFCngVW7jFjaEzpAkSVICbGU6OxnpTYyRl8VEujCP2tAhHUmPnv58n/f7zVHktfAon+a+aH5zJEmSpA5o5CVmU85gMkOn6IhkMYnBvMTu0CGHHx41/fg+F0ewW2+0hW/zVVaEzpAkSVKCVTCDvYykc+gQHZFMRjGAF9kTOuTwRG2QHMP3eadbaUdcG7O4lt+xN3SIJEmSAqjleZbQn34e10daBiMZwUKqQoccjmgNwOP4MWf4YxJxO/kF1zE32htoS5Ik6Qi0s4YZZDHCZW0jLYPhjGMO20OHHLooDcATuJtpoSN0hBbyRX5ETegMSZIkBbabp1nLMMpCh+iIDGAc89gWOuNQRWcAPpUfMTV0hI5IPX/m88ykNXSIJEmSkkArS3mWzgxzgdtI68/RrI7Kzi5RGYBP427Gh47QEdnA17mDitAZkiRJSiJVzKCK0W6NFGm9OYblrA+dcSiiMQCfxl2MDh2hI9DC43yaf9AYOkSSJElJppFXmE0fBrk1UoSVchQrojACJ/8AnMGlfJtRoTN0BKq4ixtZGTpDkiRJSaqC6TQzisLQIeqwnkxlO8tCZ7ydZB+AM3g/dzIodIaOwCtcy6+itj+YJEmSEqqO51jOEPqEDlGH9eB4trM4dMbBJfcAnMH7+KY/BBFWzx+4hudd9kqSJElvo5WVPEsBI1wSK7KKOZatLAmdcTDJPQBfwbccfyNsLV/nDipDZ0iSJCkiqnmK7YykW+gQdVAxx7GNRaEz3lryDsB5fIqvUx46Qx3UwqN8nn/QFDpEkiRJEdLMHOZQxmCXxIqozpxAC/OT9RrQZB2Ac/g0X/Wbn8iq4YfcyIrQGZIkSYqgTTxFG6PJDx2iDiniBPbxCm2hQw4kOQfgPD7NTZSEzlAHzed6fs7u0BmSJEmKqDqeYxXDvB40ovI4hibmJuNZ4GQcgHP4FF9x/I2oRv7GZ3g2Gf+wS5IkKTJaWcazdGM42aFT1AGdOI4G5iTfWeDkG4Bz+Qw3Uxw6Qx1Swa3cQkXoDEmSJKWAHTxFDWOcDSIpj2NpYk6ynRhLtgG4hBu43j/ikdTOc1zHn2gIHSJJkqQUsY+XWcoA+pMROkWHrRNTyWYBjaFDXi+5BuBivsLnvdk9khr4Ndcwh/bQIZIkSUoh7axhJvmMcXfgCMrjePKZnUwjcDINwF24mU+RGzpDHbCWm/kO20NnSJIkKQXtYiabGe0eMRGUxRTyeZl9oUP+LyhZFPNlPu34G0FtzOAz/NMdfyVJkhQnTcxlLgMY6KXQkZPF0XRKnrPAyTIAd+FmPun4G0F7+DnXsjR0hiRJklLcJp4ih1HkhQ7RYcpicvKcBU6OAbiYm/mM428EreIG7qImdIYkSZLSwF6e4VXG0D10iA5TNseQlxxngZNhAO7Clz37G0GtPMZneISW0CGSJElKEy0s5GX6MJjM0Ck6LJlMoSAZzgKHH4CLudl7fyNoF3dzAytDZ0iSJCnNbGYGMIZOoUN0WLI5KhnOAocegEv4iis/R9AqbuBH7A6dIUmSpDRUy7Ns9FLoyMniKAp4KewIHHYALnHjowhq5TE+zaO0hg6RJElSmmplES95KXTkZDGFTmFH4JADcDFf8eLnyNnND7nRS58lSZIU2Baepp2xXgodKVkcTX7IC6HDDcBufBRFK7mBH7ErdIYkSZJELbPYyGh6hA7RYQi8KVKoAbgzX/bsb+TM4LM87KXPkiRJShKtLGIegxgUOkSHIZujyeNFmkI8eZgB2I2PomcvP+NalobOkCRJkt5gEzPIZjR5oUN0yLLCbYoUYgDO5Qtc6/gbKZv4Mt+mJnSGJEmS9F/2MJMqJlASOkSHLJujaeTFxF9dmvgBOJOPcyOFCX9edVQ7s/gc99EcOkSSJEk6oBbmsYBB9CcjdIoOURaT2MMc2hP9tIl2MbfSM+HPqo5q4B4+z/xE/8GUJEmSDkM763mGEkaSEzpFh6gTE9jA8sQ+aaIH4GP5AYMT/JzquM3cyh1sDZ0hSZIkva1dPMNOxlIcOkSHqJhxzGFzIp8ysQNwX77P1IQ+o47EfL7APTSEzpAkSZIOyT5eZiWjKA8dokNUSn9msidxT5jIAbiAL/Ner8qPiGYe4JO84KXPkiRJipB2VvEs5QwNtuGrDs8gcng2cesNJfKPxVXc4OLkEbGLu7iRjaEzJEmSpMO2g6eAcXQKHaJDkMEYNrEgUU+XuAF4Mt/3UoSIWMMN3M3e0BmSJElShzTwHJsYR7fQIToEuQznRSoT82SJGoC7cRsnJei5dGSm8zkeoiV0hiRJktRhrSxiHv1dgDcSSunCjMSsPZSoO3L/l+96+XMENPFHvs6G0BmSFAn//gzNet3XyVn/9dVy1mF92dxK60H+zf/9vSs0SNKhGMiXeT+5oTP0thr5PD9OxBMlZgCewL2MSMgz6UhU8W1+4qXPkrRfNiVkkE0JWUAhhQB0JYd2MuhK1/3/XXe67P+7drrR/Q3DaTsldD/kT9t2qtn9hv86g2pq/vNvdlG9/+92spN2oHH/ypl11AGt7KaFdnZ7HY8k7deZq7mG0tAZelsruYyF8X+aRAzA+XyPjyXgeXRkFnAL//yvMw+SlIqyyCaHTPLIIJcsiiglm1KKyKacHAopA3IpIYMsupBFO0UUABl0Sap1RZvZQztQTy0ZtLKLVtrZTROwlTqaqaSFWqpooYpaWmminUbaaKbF93xJaSGLi/gSE0Nn6G39jM/F/zLoRAzA53PPf74bV3Jq5XFuStzaa5KUMBlk0JV8SiikC/mUkE93SiiiO3n0JoseFJFJNpBNJhnkkLgbhOKtHWimnTZagBbaqGUHrWyhkWpq2U01DeymgV3UsZu97KXdy6slpaCJ3MrZSfUFpv7bLq7g4Xg/Sfw/4kv5A2fH/Vl0JOr5DbexJXSGJB2BTPIoIIdOdCKPvhRTRjd60I1uFJFHAZ0oJI8CD3/epJV6GqljH/U0UE8NNeyghq3soYJG9rGPZupppC10qiQdgd7cyIcoCJ2hg3qcK6mK71PEfwD+MHe7A1dS28rt/MY7fyVFSAaZZJJND7rSgx50oZRudKGcInpQSgFZZJJJZsqcyU20dtpoo41W6qliB7VUsosaqtjFDnawkx200EabZ4slRUhnPsQNlIXO0EHs4xP8Or5PEe9Dg1781e2PktpCvszD3gUmKckVUUhnCimiJ2X0oZwyelJIJwoooBM5oQPTRDP7qKeefdSxna1UspmtbKeWOmrZS13oQEk6qCzO5+tMCJ2hg3iWS9kWzyeI9wD8P/zI879Jq43H+BLzQ2dI0htkkE02WRRTTm/KKacXpXSnlO50I4cMz+smkXbaaaaGaqrYzg6qqKSSLVSyh1ZaaPEcsaQkM4lbOIfM0Bl6C/v4JL+K5xPE9yCinD9xSlyfQR1Xz6/4JptDZ0gS7N9UqIRulNKf/vSlL13pRD6d/Bo1Yvaxjwb2sZMKKtjIRqqoYfd/Nm6SpND6cD3/493ASWsml1MZv4eP7wD8QX5KXlyfQR1VyZ38jPrQGZLSVBZ55NGJMgYwgP6UUUoPutGT/NBpirkGtlPDDqqoYDMbeZWt7KORRm/AkRRIAR/jWspDZ+iAGvk4v43fw8dzAC7mL5wbx8dXxy3hSzzoep6SEiyfckrpQT/604/B9KGIPPK8gzeNNNNII7VsZh2b2Mim/ZdNx33fR0l6g0zewS2MDZ2hA3qU97InXg8ezwH4Au6hJI6Pr45pZwbXMzd0hqQ0kEEBRRTSk+EMZCjllNKVrnQOHaaksZed7KSKStawgVVsp45a6r1YWlICTOGbnOa6EkloN1fwULwePH6/4bnczUfi9ujqqEZ+y61sCp0hKWVlkEFX+tKfPvRlIEPoTwk5ZLvgiA6qjRaa2c1G1rKBDWxlExXspN1hWFLc9OMmPugtm0nol3yCpvg8dPwG4LE8wOC4Pbo6pprv8qP4XVAgKW0V0IViejOcYQynN13oShe/VVeHtbKHnexiC6tYzSq2sIddrlwhKeaK+SSfp3voDL3JOi5kSXweOjtu0SczKG6PrY5Zydf4Gy2hMySliGxy6M4I+jFs/1JWvcjxPK9iIouudAUmA200s42NvMqrrGYTK6mm2U8zSTGxh2+xnq8wInSI3mAQJ8drAI7Xt/MF3M/ZcXtB1BHPcwOzQkdIirw8yuhGOSMYzjh60oUiV25WwjRQyy62s5hVrKSSGrbSGDpKUuRN43ZOCB2hN3ici+Nz3U+8BuCp/J0+cXxBdHhauI+vsTx0hqSIyiaPIgYymuEMZBB9KIvjFUTSoWlhK5tZzwZWsYwN1NLoeWFJHTSKr3CJn21JZDPvZnY8Hjhev8nT3FcridTyc26jOnSGpMgpoje9GcIoRjHMc71KMtn0pS/H8u/zwitYwUrWsoUt1IaOkxQxy/kEm/l/FIUO0X7lTIvPAByfM8Bd+QPnx/UF0aGr5DZ+5Q6Lkg5RFkV0ZhCjGMtwyunj0iCKlGo2U8kqlrCc9eylltbQSZIiIp//4UZP4yWNh7mSnbF/2PgMwON5nLI4vyA6NEu4iYdoC50hKenlUMYgBjOSMYymlFy3hVCkNdJEFctYygrWsZ6tNIdOkpT0MrmAWxkbOkMAbOVsFsX+YeNzCfQkesT55dChaGcm1zPHHRQlvaVOdKUHI5nEaAbQi55khU6SYiKPPDozmAtoZTvbeJVlzGUZu9jJvtBxkpJUGw9SyTc5xY38kkAPJsVjAI7Pb+1P+HicXw69vVb+yNdYFzpDUhLKIJc+jGQMwxnNcErI9qNeKa+dFnaxmmWsYikr2EyTXxFLOoDBfIX3+4VwEvgpV8f+QeNxBrirlw0kgd38mO+48JWkN8illDKGM5mJ9Ke7d/cqrWSQQymlHA9UU81GFjCPVVSy3dWjJb3OOj7PZv6XktAhaW8sXWN/F3A8vvE/lr/SPwEviN5aFV/lNy58JQmADPLoyljGMZbhjKILmaGTpCTRxi6WspLlLGYJO2n0nLAkAPL5EF+lNHRGmtvIpbwU6weNxxngIfRKwMuht7aUm/mXq15KojMDGcwEpjCKbpS4v6H0Jpl0YxrTaGE3NaxgNovZwAb2hg6TFFgDP6OSbzAmdEha68WgKAzAGYx05dCgnuUGXggdISmgbIooZwqTGcEwBpITOkhKetl0pzvDeAfNbGA1K5nHXCqp9eJoKW218g+2cTsnhQ5JY3mMiP2Dxn4ALoxHpg5RKw/wRVaHzpAUSA+GMYKxTGEkJeSHzpEiKIdhDOM8GtjNCuayhJWsZkfoLElBvMBHuIMLXRArmNEUURvbh4z9AJzP4AS9HHqzen7OHWwLnSEpwXLoSm8mcyyjGUi5H9NSDOSTTxmn0EolG1jGS8xjCzvdTVhKM6v5Xzby/ygIHZKmBpMf6wE49otgDecF1xUNooY7+SF1oTMkJUwGBYxiAhOYwgiKvdRZiqNm9rCSuSxgPqupc7EsKY0U8imupVvojLRUzfGsiu1Dxv4McD9yE/Ry6PU2cjN/oSl0hqSE6E5vRnEckxlAbwdfKQFy6M7xHE8Tm9nEPF5kGVuoCZ0lKQHq+C5b+Ib73ASQSz8HYB3IYq7lSdpCZ0iKs1zKmcIUJjOBUtd0lgLIZRCDOIlPsY15LGIuc6n0C2gpxTVxD9u4k3GhQ9JOLv1i/ZCxP3wq85Aswdp5ki8yP3SGpDjKph+DmMTJjKQnJaFzJJFFb3pzAbvZzgqeYT7r2eSa0VLKauNxtvMtzggdkmayKYv9Q8ZaL5dfSag27uUm1ofOkBQXWRQylOM4inGMoCh0jqT/UkIJw3gHtaxkMXOYxQbqaA2dJSkO5nM13+BSMkOHpJEsesX6IeNxBliJ08DPuJ3toTMkxVwuQxjFFE5iGF29tURKekVMYQqXU81anmUuy1nrhdFSylnDZ9jKx9xoMIGS/gxwhodpCVTDnfwo1guDSwoqh64M5VhOYDSDyQudI+mw5FJOOSfSyDqW8TzPs45dXhgtpZDt3Mw214ROoFwyYrvufqwH4K50TeDLkd42cyN/dj9CKWXkMIhJHMfxDKWzqylIkZbHKEZxIXtZwQvMZhHr/cSWUkQt32ELt9EndEia6ErX2K64H+tDrEyviU+QJdzAI677LKWATLozkBOZxggGUhA6R1LMZNOV4ziOejawklk8xwaq/eyWIq+Ze6jhdsaGDkkLMZ8vPccQTc/zRZ4LHSHpCGVRxlSO4lgm09mvD6WUVcBoRnMhe5nHy8zmZba5TJYUaW08xC7u4ITQITp8DsDR084D3MCK0BmSjkAJA5jEGUyiH8WhYyQlRCYlnMqp7KKCBUxnPq+yO3SUpA57jo9wOxeSETpEh8cBOGqa+QNfoSJ0hqQOyaKQMZzEcUykn+d8pbTUhS6M5XI2sYAXeZal1HpZtBRJK/gUNVxJTugQHQ4H4GjZyy+4hZ2hMyQdtkz6M5xTmcZQerhfupT2MhnAAC5gByuZxTOspMIxWIqcCq5hFx+lc+gQHToH4Cip5lv8iPrQGZIOSx7lHMPJHMsIikLHSEoqWfSiFyfxKVbyCtOZx1YaQ0dJOgw7uZltXEf30CE6VA7A0bGFG/mTmyhIEZLLSCZyIqdR7urOkg6imKM5mqvYxtPMZBEraQqdJOkQ1fM9tnEbvUOH6NDEfgCO6TbF+o9VXMvDrhkpRUQJvTmRM5nEIC93lnSIiihiCFfxKgt4kllUukiWFAnN3MNO7mR46JCUFPPpMtYDcC21CXop0svLfMFtj6RI6MQ4juc0jqG7i2JI6oBchjGMi9jGPGbwAovZFzpJ0tto5V/U8B2OCR2SgmI+X8Z6AN5HXcJejPTxODcwP3SEpLfRhYGcwhmMo6/rO0s6Qjn0pS8XUMFipjOTDewKnSTpoJ7j49zO2aEzUk5drL8EjP0l0NUJeinSRRsP8AXWh86QdBCdGMM0TuFYejr6SoqhTPrTn3PZzkvMZBZLPRssJbH5XM13uNBjgZiK+XQZ+wG4ijZ/02OmmV/zdbaEzpD0FkoYwomczXjKXFRQUpxkUsaFnM9WFvE4z7HWe4OlJLWeT7KdD3sTVMy0URXrh4z9AdsWWshNyMuR+ur5AXe666+UlAoYzmmcxNGUkxE6RlIayKYvfTmXSl7hWWawyo0RpSS0hRuo4TPu/hAjLbE/FRj7AXgzzQ7AMVHDd/i+H25S0sllJFN5B1Mo9ayvpATLoDcXcj5VvMIDzGW5GyZJSWYnt1DLF+gWOiQlNLM51g8Z+/MWE3iargl5OVLbNr7KL2kJnSHpdfLox+mcxmQ3N5KUBFpZzzye5CkqvTdYSirZfISv0it0RgqoYRrLYvuQsR+Ae/MMQxP0gqSuDdzAX2kLnSFpvwz6chIncxr9vMZFUlJpYhMzmMHzVMR+v0xJHZTJpdzOwNAZkbeGk6iM7UPG/vK9OlY5AB+hxdzIw36ISUkhk15M4B0cz0g6hY6RpP+SyxCGcDmreYEHWcg2v0CXkkAb91LLbYwLHRJxq2iI9UPGfgCuZyXnJeTlSFXz+ASzQ0dIAjozmTM4g3EUhk6RpIMqZCIT+QCLmc505rE3dJCU9tp5iB3czeTQIZG2krpYP2TsB+BmVibkxUhN7UznOhaEzpDSXiHDOJnzGe/9O5IipJCpTOWjLOJhnmF17A8cJR2W2fwP3+IM94vosJU0x/oh4/GbcTp/omcCXo5U9BifZnXoCCmtZdOXUzmT4+nvx5WkyGpnIy/wODOodElNKahh3MU5oSMiajuX81SsHzQeh3f9+BcT4/96pJwW/sRNVITOkNJYT6ZwHmcwgPzQKZIUA/VsYAaPMJftoVOkNNaXW7ncrRM7YAHvZFOsHzQeA3AWf+LSBLwgqaWJ33Ez20JnSGmqkJGcyxlMoSh0iiTFWC1zmc6jrPCSaCmQXnyDD7iPxGH7K5fTGusHjcdOlu0M8Er3w7SP7/A1qkNnSGkokyG8k+u5ngsY5EeTpBSUy0BO4Z0cRQG17HKfCSnh6phFBkd7FviwtPFbno/9w8ZnTD2WJyiO8wuSSnbzA77teo1SwvVgAhdzEiPICZ0iSQnQzDKe5V/MoyZ0ipR2OnMNn6EkdEaE7OEsXor9w8ZnAO7F3zkxzi9I6tjFl/gljaEzpLSSzVhO5wIm+2WdpLSzh5d5lCdZFvtLCyUdRB4f4Ra6hM6IjOd4dzxuEI3HJdCwj1EcH+cXJFVs4yv8kqbQGVLayKA3p3IT1/BuBpMXOkeSEi6PwZzB2RxNC3upDZ0jpY1WFrKLo1xv5BD9jX/F45aNeN2p+05+57cbh6CCz3Gf9+JICZLHeM7nTCa5yrMkAQ3M50keZpFXokkJksElfI++oTMiYBcf4F/xeOB4DcA9eZij4viCpIa1fNHxV0qQ/hzLJZxIb5fok6TXaWcLz3EfL7ExdIqUFjK4hDsYEjoj6c3h/Phs4BafS6ChngFMi+MLkgoW8ykeCh0hpYECxvFxbuBqJlLs+CtJb5BBMWN5ByfRjz3spjl0kJTylrGMSfQKnZHkfhuvSSl+h4In8g96xO3Ro28hn+bZ0BFSyuvLCbyLaZSRGTpFkpJcG1uZxT94norQKVLKO4m7mBA6Iont4F08F5+Hjt8A3JXfc0HcHj3qnuWLvBg6Qkpp+YzkYk5nEp1Cp0hShOxjPtP5K2tpCJ0ipbTjuIOTQkckrYe4ip3xeeh4XQIN+yjmTDd7PqDpfIL5oSOkFFbKOVzDTZxPP9+FJOmwZNOPk3gnY8hkB/Whc6SUVcFLjGBw6Iyk1Mhd8Tr/G88zwNCXB5kYx8ePqif5HEtDR0gpKpehnMOFTHaLAUk6QrXM4wEeZY33BUtxMobvcWboiCS0gHfE71aM+J0Bhr1057Q4Pn4UtfNXPseq0BlSSirkJD7Pl3kPA8kNHSNJkZfLAM7kXAbTzDaHYCkOqnieMsa4ROeb/IhH4vfg8X2xx/M3hsf1GaKlnT9zHZtDZ0gpJ4N+nMJ7OYrS0CmSlIKqmMNfmMkmN2+UYq4P3+J9jsCvs4r3sCh+Dx/PM8BQRW9O8Ldzvzbu5Vq2hM6QUkwu47mam/gYIygMHSNJKamQYbyDUyhjFztpDZ0jpZS9zKa3Z4H/o51f8pd4ftkW7xd6NA96azcAjfyMW+OzmbOUtrpxHO/mDPr4oSFJCdDGZp7i77xITegUKaX05CY+Rl7ojKSwjnewLJ5PEN8zwFBDd5f3Bhr5MV/1w0KKmQz6cRk381mOpdjxV5ISIoMSJnIBx5DDDvaGzpFSRh0vUshk964A7ua++N5sEe8BuJ1NnERZnJ8l2TVxN19lT+gMKUXkMIH/4Q6uYITflUpSwuUxlHM4i+7UUk1b6BwpJTTyAoVMift0luwWcBPV8X2K+L/ENeRzelr/VtbxE77u+CvFRAnHcQNf5GJ6+i2pJAWTTRmncRaj2UsNjaFzpBTQxEvkMz6td7Jo5tvxXP/5NYm4cLAn93JKAp4nOe3mNu6mLnSGlAJ6cgaXcSLdQodIkv6jhpn8nadc50SKgUI+wY2UhM4IZiaXxf+9JBFnZuuo5sw0XZ11F7dyFw2hM6SIy2IoV/J1Pso48kPHSJJeJ59RnMPJdKaG3W6TJB2RZubQyDF0Ch0SRBVfZH78nyYxlyavpw/HJuSZkstubuUHNIXOkCItmylczZe5ggFpfVGQJCWvXPpzFqfRm53s8K5g6Qi08gpNHJuWI/Cv+XEi3j8SMwC3sY4TKE/IcyWP3dzCDx1/pSNQyDSu5UucTy9XepakpJZBT07kXIZTz3aaQ+dIkdXGXBrTcASez/WJuZUiUYtTVbOD0ylI0LMlg53cyl2Ov1KHdeE8vsR1TKPE4VeSIiGDLhzFBUyglUr2hc6RIqo1DS+EruY6ZiXmqRK3OvNaenBs2hzGVnITP/PbT6mDBnAJX+eTTEqrr80kKTUUMIbzOJ5sdrgLhtQhrcxhF5PpHDokQdr4GT+mNTFPlrgBuJWljGVowp4vpM1cwz20hM6QIiiLgXyEr/I/DHePX0mKrDwGczbT6MIWal0aSzpsrcxjM1MpDh2SEE9wA7sS9WSJ3J93L2s4me4JfMYwtnAtf3EBCOmwZTOGq7mdS+nnHr+SFHnZ9OM0zqYnVewIHSNFTjtLqeS4NDgLvJrPsDxxT5fIARgq2M3JKb6JyWau5a+Ov9Jhymci13MTF9GDzNAxkqQYyaQnJ3EmQ9lBjVfHSYdpeRqcBa7hJh5O5BMmdgCGFWRxYsKfNXE8+ysdvk6czHXczOl0S5t1AiQpfWTQnWM5n0E0UOkQLB2G1D8L3My3+Hmi7v59TaJH0VYW0oPJKXqQu4VrPPsrHZYunMaNXMe0FH5rlyRBMUdxLqOop9r1oaXDsJzNKTsCt/ILbqMusU+a+HOxjSxkIKMS/rzxt4VruNfxVzpkRZzPV7ieoygMnSJJSoBCJvAuxtNEhVtFSoeonWVsSdER+H5uTPwKASEuRt7DXMYxKMAzx5Pjr3Q4enERX+dTTCQ3dIokKYFyGck5TCGDqkSf95EiKlVH4Kf5DBsT/7Rh7sbdyXzG0T/Ic8eHS19Jh64H7+FrfJJRabXBuyTp3zoxgvM5mgw2Ux86RoqA9hRcDus5Ps2KEE8cajmqbcxNoRHYpa+kQ9WPd3MLH2O4Gx1JUlrLZjBnczywndrQMVLSS7XlsJ7jEywK89Th1mNOnRF4E9d59lc6BP34ALfyYYaSEzpFkpQEchjIWZxMIVvYEzpGSnrL2cwxlITOiIGA42/IAfi1EXgwQyK+IvRyPss/HH+lt9GXD3IbH6CfZ34lSa+TQz/O5GTy2ewQLB1UO0tZzSRKQ4cc4a/iCT4XbvwNOwDDNp6jDyPIDFpxJBbyaZ4IHSEluQFcxW1cRb8I/6xLkuInk96cwcl0Yhu7Q8dISW0Vy5hIWeiMDmvhfj7DypAJYQdg2MUsOjMxeEfHPMnVvBQ6Qkpqffgw3+DD9I3oT7kkKTGy6MPZnEgBFewNHSMlsQ28wFCGhM7okH38ghuoCBsR/pC0lufYy0QKQoccpn38kS+E/fZCSnIDuJI7uJJ+Eb/RQZKUGBn04XROJc8zwdJBbGMWXRkZudvKqrmFb1EdOiP8AAyNvMh6xkTqavYavsktbA2dISWtPnyYr3vmV5J0mLLozdmcSKFngqW3tItnaGAi+aFDDsMyruVX7AudkRwD8GubO79ML4ZG5A7BBVzHb9y8XXoL/bmKO7iS/hH5iZYkJZdM+nA6p5HLJrdIkg5oHy+xmuERuRu4hQf5PNNpDx0CyTIAA2xhBnWMoTB0yNuo569cx9O0hg6RklIpl3KbZ34lSUcoi96cybG0s4X60DFSEmplGbPpHIHtJbdzJ19ldeiMf0umQ9Q6XmAZfemfxPcLruLr3Mam0BlSUirlPdzKxxjsmV9JUgxkMZCzOR4cgqUD2sYTbGMY3UOHvKV2ZnE9v02mGxqSaQCGNlbxNPUMpjh0ygHUch+f42GaQodISagbl3AbH2NY0n8LKUmKkhwGchbH0cQmGkPHSEmnibnMooRB5IZOOYAKfsTNvEJb6JDXS8ZzrZmczKc4J6lu6m7jFX7EP7zvVzqAIs7kA5wZubXcJUnRUceT/J4nvSdYOoBC3sUnOTqprsFr4DF+yDPJNfxCcg7AAN04n48yNUnOJa3iHu5hfegMKQkVcCJXcyoloUMkSSlvN09xNy95QkI6gEFcwRUMD50BQDOz+QUPUxM65ECSdQAG6MvFXMWEwDtcbeJv/I7FybFmmZRUcjmRq7ggie87kSSlmh08zO95zlvSpP+SwTg+wHvoF7SihYX8nvupCP1yvJVkHoAB+nIJlzM5yBDcznr+xe9YSnPol0FKOtlM5oNcQs/QIZKktLONe/kj82gJHSIlnRzG8AHeyaAgc14L8/gT9yXv8AvJPwADDOBsLuNoOifwORtZwX08xCK3O5L+SybD+R8uC/z9oiQpnb3Kn/kdq5Lv/kIpuCzGcwGXMJK8BD7rXl7hXh7n1dC//LcThQEYoBtTuZhTGJyA4u28yCM8SoWXPUsHMJj3cyVDI/PuIUlKTW2s5Q/8kXWhQ6QklEFfzuU8jkvA1XrtrGMm9zM7Oe/5fbMoHcLmMIrjOY9J9IrT4ljVrGQ6T7KIPaF/sVJSKuNSrmJikm2gJklKV60s4Nfcx7bQIVJSKmY8Z3IGI+K0Yksz25jPI7zA8ujcNBqlAfg1BQzhdI5jIoNiNga3sZ3FzOYZ5rDXS2mkAyrmQj7CcUmyNrskSa9pYja/5AFPX0gHlElnjuJkpjKOnjHbKKmZ9SzgRZ5iLfWhf4mHJ3oD8GsK6ctITuBo+tKNrh38ddRSzWaW8AKLqKAq9C9KSlqFnMwnOImi0CGSJB1ALc9yN8+4QZL0lkrpy3iOZyx96N7BY7p2dlJDBa/wPCuoiOZPXFQH4H/X59KfEQxmBP0YRDmFZJJFxgG/22injTbaaGArm1nHBtaznLXUec5XOohMjuPjnE/X0CGSJB3ETv7Fz5ntcZ10EJkUMoRRDGIgg+lDGflkkknmAefCNtpppY06KlnPJlayjpVspCnKayVFewD+PzkUUUwBPSijL/n0JZMMyigAWqikiXa2spetVLOZWurYQ2PoaCnpZTCGD3EZfUKHSJJ0CCr4K79haZQPzqUEyaOYQoroQ3fK6EYPIJdysoF6ttJOGxU0UMFWdlDPHmqjc5/vwaTKAPx2vzrfBqXD148r+AAjQmdIknQYVvI77mFT6AwpgtJiekrtAVhSR3XjYv6Ho8gOHSJJ0mFqYQ6/4v5obMkiKbEcgCW9WT6ncjVn0Cl0iCRJHbSP6fyEp2kIHSIpuTgAS3q9TI7m41xEl9AhkiQdoV38k5/yistiSfo/DsCS/s8QPszlDAydIUlSjGzgT/yataEzJCULB2BJr+nKe/kYE0JnSJIUYwv5GX9hZ+gMScnAAVgSFHIan+AU8kKHSJIUB43M5G5mUBc6RFJoDsBSustkCp/gIkpCh0iSFEe7+Sd3MyeVt3eR9PYcgKX0NogPcxX9Q2dIkpQAG/gtv2d96AxJ4TgAS+mrhEv5KEeHzpAkKYFm83PuZ3foDElhOABL6Smb07maMykIHSJJUoLV8xg/YSYtoUMkJZ4DsJSORvIx3ktZ6AxJkgLZyl/4GStCZ0hKtKzQAZISrCf/wx28k6LQIZIkBVPEVE4hkw3Uh06RlEieAZbSSR5n8GlOdrsjSZKABp7lh0ynMXSIpERxAJbSx1g+zuV0DZ0hSVIS2cmf+ClLQmdISgwvgZbSQ08+wjc5j/zQIZIkJZV8juFUsllPXegUSfHnGWAp9XXidD7FaeSEDpEkKUk1M8OLoaV04AAspbpRfJLL6B46Q5KkJFfNPfyM5aEzJMWTl0BLqawbH+BOznO3X0mS3lYBx3IK7axlX+gUSfHiACylqmxO4k6uprdXekiSdEgy6MkZjKWSzbSFjvn/7N13mF0Fva/xd2YySSa9956QEAKhht6LoqKCHlEsoHBVsHfBBlhpIiDYjgX7saKC9BYSWkJJAukhjfTeprf7h1EpSZhJZu/fKu9nP/c8x3ssbwbZs757rb2WpELwwFjKppFczHsZFJ0hSVIKreI3/Igl0RmS2p5ngKXs6cx5XMP/0C06RJKkVOrKMRxLFS9QH50iqW05gKVsKeVwvsWnGOX1HZIk7bUSBnM6o1jO2ugUSW3JASxlSR8u4SpOokN0iCRJqdeRQziVdiyiKjpFUltxAEtZ0Z7TuY6L6BsdIklSZvTmZA5mPS96UywpGxzAUjaM4PN8g4n+PS1JUptqx36cTm8WsSU6RdK+82BZSr/OvI3v8T90iQ6RJCmTunIsx7ONpd4US0o7B7CUdhO4gi8w2pteSZJUMP+6KdYwFrM+OkXSvnAAS2nWjffzXV5Px+gQSZIyryOHcQoNLKQ2OkXS3nIAS2lVxlF8i08wKDpEkqTc6MupjGMFq2mOTpG0NxzAUjr14hKu4XjKo0MkScqVcg7kdEqZR010iqTWcwBL6VPGSVzPRfSJDpEkKZd6cCIHs5oXPQ8spY23zZHSpi8X82EGR2dI+o9mSoAmGv5zKNxEw6v+WfV7PFAu2cX1HO0o/c//9V//e7O/t6UEWcmP+ZE3xZLSxV+kUpqUcwaf4hTaRYdIOVNJNc1spwaopApoYiv1QCNrqQZKqGINTTt/r1ay5hX/Do2spWq3v3Wb6UT/V12VNYDOO/+vpQygE81Axc5/XjndKQW6UkEzHelKCRU7//mSiqWBB7ieh6mLDpHUUg5gKT2GcgkX0j86Q8qYRhqop5FamqijiVXUsI0N1LGGejaziRK2UQ1soxaopBJoZguNgdVl9KAE6EZHoAPdgAq60UwvelLOANrTh250ZBCltKeUDpRRTju//CS1sbX8nB/yYnSGpJZxAEvpUM4ZfIET/nNBpKS90UwzG6lkEzVsYjvb2MF6trGRHaynlrU0UE8zjTTS/BoXLSdZCeWUUEYZJZTTjv50oC9d6E03+tKVnlTQi470ojO9KfFoQNonTUzhGu6jPjpE0mvzV56UBkO5mP9Hv+gMKUWaqKaGWqqpYhMbWME2VrOWrWynlu3UsZ3q3F62WEEHutCernSgK93pz0C6MYQ+9KITFXSgIxV+4Ca1wjp+yo88DywlnwNYSrp2nMGlHO+hqLQHTTTRzHbWs56NbGAD61jPBjaygbU00kQjzTRFZyZYKSWUUUoZ/elDb/rQl370oQ+96UtfulJCqe9D0h40MZWruG8Xt8CTlCAOYCnZhnEJ72dAdIaUOLVsZwfb2c4aVrCCVaxkE1VUUUU1tdF5GdGBCjrRiU70YjCDGMIQBtCVrnShKx2i86TEWcOt/JDl0RmSds8BLCVXO17H5znJv08loIEG6tnIalaykhWsZT3rWcd66mhO7Xd106aEEtrTl370pS/9GcJgBjOQ3pTTzvvTS0Azk7mWez0PLCWVB9ZSUg3hEr/3q5yrYTMb2cx6VvACy1nGJmqoptpbzSREORVU0JFeDGcYoxlCX3rSmz67eKqxlB/r+Ak/ZFV0hqRdcQBLSVTKCXyFU/2+nXLnX7etWsNyFrGc5WxgHevY4hnelCihB/3oxwAGMYwxDGPAzltqSfnSwIN8myneeUBKHgewlDz9+RAfZnB0hlQ0m1nLelbyIvNZyjI2U0eNZ3lTrpyOtKcnwxnBOIYymP70p3t0llQ0K/kxP2FtdIakl3MAS8lSytF8hTP8Lp0yrpbtVLGehTzPYlbsvNDZ78xlV7udd5QexDj2Zwx96eRttJR5DdzHN3nC88BSkjiApSTpyYV8jBHRGVJBNNPEWl5kGS+yiIUsYw311Hl5c86UUk45AxjOfoxhGKMYSH9KPSJRRi3lZn7O5ugMSf/mrxspOQ7jC5ztGRFlTANb2chG5jOTF1jGFjZSGR2lxOhCH7oxnP05gHH0pg89vPuBMqaWv3ENz0RnSPoXB7CUDJ14N19gv+gMqY00UMeLLGIeC1nBPFZRR2N0lBKtjPYMYn9GMIpxjGEo7f0yiDJjIdfwez/8k5LAASwlwXg+w3l0js6Q9lEz61nPSuYxh1msZhtb/O6bWq2UHnRjIBM5gP0ZTF/6eryi1Kvkd3yX+dEZkvyFIkUr52y+xCHRGdJea6CazcxmLrNZxnKWURedpMxoz3CGMZwJTGQcPajwrLBSq5lnuJrbvN2fFMsBLMUayie5kJ7RGdJeqGMFy1nKLGawmK3s8LBOBdOOrnRjFIcwkdEMYTDto5OkvbCRn3ILL0ZnSHnmAJbilHIKl3GKN3xRqtSxnQ3MZQYzWcZyNkYHKXf6MYRhHMwhjKcPXZ3CSpUmHuJbTPbrIVIUB7AUpQcf5DMMiM6QWqiRNSxgIbOYxSK2UuPhm0KV0pHujGEiE9mfMfSnLDpJaqEV3MhP2RKdIeWTA1iKUMIhfNFHHikVtrCBRTzLUyxhFet8aq8Sp4QBDGQER3AkI+hNj+gg6TXV8jeuZobvqFLxOYCl4mvPuVzGAdEZ0h40U8sLzGI2s5nBGuo836vEK6U9AziECUxgIqPp4FGOEm0O3+GP3jRQKjZ/NUjFNpxPc4FnKJRQzaxjHYt4gmksY51PrVQqdaYfwzmSo9mPgfSOzpF2Ywu/5Hssi86Q8sUBLBVTKafyZU6OzpBepZFaFjOdGTzPAlbTGB0ktYEyBjOBAzmUwxlCB78lrAR6mG/xoNfYSMXjAJaKpycf4NMMic6QXmYLy3iBp3iCBWyiOjpHKoAu9GQMR3MEoxlF1+gc6WVW8D1+weboDCkvHMBSsRzIZbyNjtEZ0k6VrGcW03iG+SzzjK9yoYzhTGAiR3IwfekUnSPtVMuf+QbzozOkfHAAS8VQxtl8jYnRGRLQxEoW8CxPMp2NVHoPUuVOCZ0ZwKEcyaGM86ocJcRMvsHf/DBSKjwHsFR4A/goH6ZvdIZyronNrOJxpjKHZWyIzpESoA8jOJATOYJB9KQ0Okc5t54fcwtrojOkrHMAS4V2GJdzlgdWCtTIUp7laZ5iBlupj86REqY93TiEIzicQxnhjbIUqIk7uJJnojOkbHMAS4XUiXP5IvtHZyi31rKc6UzmeV5ke3SMlHBdGcqBnMQkhtE/Oka5NZdvcRtV0RlSdjmApcIZzGe5iG7RGcqhOlbzNNN4kufY7OM1pFYopScHcRRHcjiDKI/OUQ5t5ed8l5XRGVJWOYClwijhGL7CGbSLDlHObGYxz3IfM1nD1ugYKcW6M4DDOY2DGUXP6BjlTAP38U0e9yaFUiE4gKVC6MS5XMbY6AzlSANbmMUUnmQGazxoktpICQM4hKM4gYn08CNNFdECvsMfvRRaansOYKntDeHTXET36AzlRCOLmMvDTGEJW73cWSqAUrozkhM4mfGM8TZZKpKt/IzvsSI6Q8oaB7DU1o7hck73AElFsJ1VTGEqT/MC1dExUg5UMJrDOZ4TGEyX6BjlQCP3cyWPR2dI2eIAltpSBe/iUi99VsHtYA5PMJkn2EBddIyUM+3pz9Ecz7FMoCI6Rpm3gKv4Pz/klNqOA1hqO176rMLbwGLuZTILWe43faVAJQxjHCfwOkbRJzpGmeal0FKbcgBLbeUYvsbrKI3OUGZtZjpP8TBPscXpKyVECT04glM4ikO9V7QKpon7+BrTojOkbHAAS22hA//D17z0WQWymnncx8MsZEN0iqRdKKEvozmZM9ifgdExyqh5fIO/UBudIaWfA1jad334DJfQIzpDmdPENqbzMFOYwfboGEmvqSuHcAInM4luXg+kNreF73MDm6IzpLRzAEv76iAu560+HVJtbCMzeZAHWODBjpQyvRjLaZzORHpFpyhj6vk7lzMnOkNKNwewtC/KeCPfZGJ0hjJlK/O4lylMZ0t0iqS91otJHMvr2d9bI6pNPcvXuIvG6AwpvRzA0t7rzof4DAOiM5QZVczmYe7iOTbRFB0jaZ+V0ouDeAvHMYFO0THKjDVcz0/YGp0hpZUDWNpbo7mM8zykUZuoZAUPcifP+XAjKXNKGMZBvJFTGULn6BhlQhW/5zu8EJ0hpZMDWNo7x/NNToqOUAY08wKPcR+TWU1DdIykgmnHQE7m9RzFaI++1AYe5jKeiI6Q0si3YKn1OvIOrmRkdIZSrpnVPMs/mcILVEfHSCqKCkZzAm/iUAZ6DKZ99AJX8EfqojOktPHNV2qtvnySj9MtOkOptoNnuY8HmEFVdIqkouvEIZzGGRxKl+gUpdoWbuJm1kdnSOniAJZaZ3+u5GzaR2cotWpZyCP8g5ms9du+Uo6V0J+DeQsnsh8domOUWvXcxuXMi86Q0sQBLLVcCWfwDY6MzlBKNbGOR7ibR1jiPZ4lAVDKSE7kTE6kH6XRMUqpJ7mMh6IjpPRwAEst1YkLuJRh0RlKpa3M4D7uYgE7olMkJU4XxvIGXs8hdI1OUSot5ip+TU10hpQODmCpZQbwOT7oN3/VanUs517uZJrf0pK0R/05kjN5HcMpj05R6mzlB3zP3zNSSziApZaYwDd4q5enqZU28Sh3cw/LqY9OkZQK5QzjTbyOY+gVnaKUaeRPXMH86Awp+RzA0msp4TS+5Td/1So1LOIe7mAmm6NTJKVOTw7mLN7AKDpGpyhFmnmSr/KAN1iU9swBLO1ZB97D5X7zV62wgUe4g3tZ7a2uJO21UoZyGm/iRPpEpyhFlnMlv6U2OkNKMgewtCd9+DQfoUd0hlKihvnczd+Yy9boFEmZ0J3xnM2ZjPNcsFpoCzdzvVcfSbvnAJZ2byTf5FzaRWcoFTYzhdt4kOXRIZIyZxin8zaOpWd0iFKhnj/xFZZEZ0hJ5QCWdud4vs0J0RFKgUbmcj9/5Tm2RKdIyqyeHMjbOJ3xlEWnKAWm8CWmRkdIyeQAlnalHW/nSsZFZyjxtvIUf+U+FnnTEUkFV8IYzuBtTPKhfHpN87mcv9AQnSEljwNYerVuXMJn6BedoYRbzn38iSc97yupqHpwHOdwhrdn1GtYx3X8gMroDClpHMDSKw3iS1xIRXSGEqyK+fyJu5lNXXSKpFxqzwTO5B2Mo1N0ihKsip9xFauiM6RkcQBLLzeBb/Nm/87Qbm3kMf7CfR5QSAo3iDN4OyfSPTpEidXM7XyJ2dEZUpJ4mC/9VykncxWTojOUUE0s5QF+xwwvepaUGD04jHdxGiMojU5RQk3nUh72yfTSvzmApX8r4118g5HRGUqkOp7jNm5njjcUkZQ47TiAN3MOEymPTlEiLeGr/B+N0RlSMjiApX/pykf5LH2iM5RAW5jOb7mfVd7pWVJilTCU03kXk+gRnaIE2sB13MKO6AwpCRzAEsAAvsaFdIjOUOKs5h7+ymS2RYdIUgt04yTezpv8OFevUs2PuZo10RlSPAewBOP4Nm+lLDpDidLMfG7nTzxPdXSKJLVCBQfxLt7IWI/y9DIN/IMvMT86Q4rmW6N0It/muOgIJUo1c/gDd3rfTEmpNYE3cB4H0DE6RInyCF/i0egIKZYDWHl3Dt9hXHSEEmQHj/FH7mBtdIgk7aNBvIl3cjSdo0OUIPO5jNuiI6RIDmDlWQXv56sMjM5QYmxgCr/lYTZGh0hSG+nLSbybE/xWsP5jNd/gVr/eo/xyACu/uvFpPkvX6AwlxCr+yZ95hJroEElqYx05kXdxph/4aqftfJfveXtH5ZUDWHk1mCt5j9+NEgCLuIM/8Cy10SGSVCAVHMw7OYvRHvsJqOG3XM7K6Awpgm+CyqdxXMNZlEZnKFwj8/krf2AOTdEpklRgpRzAefwPo33ugWjiDr7gPaGVRw5g5U8Jx3EdR0VnKFw9z/MH/sxSGqNTJKlI2jGCt/NOJjqCxZN8hseiI6RicwArb0o5i2u873Pu1fE0v+Q+FkeHSFKAUZzJezmc9tEhCjaHS/mn10ApX/z0T/lSxoVcy8joDIWq53Gu5komszk6RZJCbGY6d7CEHgz0WDDX+nIiW5lJc3SIVDy+6SlPOvM5vkb/6AwF2sGDfJPreIjK6BRJClXJ09zLHDrR3zPBOdaN4ynjGeqjQ6Ri8RJo5UdvvsKH6BSdoTBVTOaX3MOW6BBJSpCevI4LOMnfjzlWxU/4JhujM6Ti8Ayw8mIk3+EiOkRnKMh2HuYKrme6z/mVpJepYTb3MItu9Pe3ZE6VcwT9eZat0SFSMXgGWPlwAFdzVnSEglQxmV9xt2d+JWkPenAm53smOMfu4IvMiY6QCs8BrDw4jms4NjpCIbbzKLdyvxd2SVIL9OZ03s9xdI0OUYjH+CxPREdIheYAVvadyfWMj45QgEqm8Evu8V7PktQKPXk9F3ACnaNDFOA5Ps890RFSYfkdYGVbGe/hWsZGZ6joKnmAr3Ot3/mVpFaq4Xnu4nk6M8i7Q+dOf45lE7N9LJKyzAGsLOvIB/kWQ6MzVGQ7eJCv812mUx2dIkmpVM1s7uZ5ujDQEZwzPTmOrTxPY3SIVCgOYGVXFz7FlfSKzlBR1TOVy7mGpxy/krRPqpnNnSygL4M8XsyVLpxME89SFx0iFYZvaMqqnnydT9IlOkNFVMN0vsXVPO5lz5LUJmqYxb0spA99aRcdo6LpwNH04El/myqbHMDKpiFcxUV0jM5Q0TQxi29zOVPYHp0iSZmynWe4ndUMop83T82N9hxOP572d6qyyAGsLBrJ9Zznf7tzo4lZ3MAV3EtldIokZVIl07mPVQxwBOdGGYcwgmlsjQ6R2poTQdkzkR/wBkqjM1QkS7iFy7jDhx1JUkFt5lHuZxtD6RmdoqIoYX8mMIN10SFS23IAK2uO5gZO8vPpnHiRn/N5/sKm6BBJyoVNPMJ91DKE7tEpKoISRnMQs1kZHSK1JQewsuVUfsTh0REqik38li/zK9b4tEJJKppm1vMgj9HMCCqiY1QEwzmG+SyJzpDajgNY2VHC27me8dEZKoId/J3L+BFLaYpOkaTcaWIF9zKNCob7lOAc6MckVjE/OkNqKw5gZUUZ7+J6RkZnqOBqeIivcgNzaYxOkaTcamQx9/AcPRlEeXSMCqwvJ7CG56MzpLbhAFY2lHMJ32BQdIYKrImn+Bbf5Glqo1MkKfdqmcudvMhABnjvjYzrxrFUMtPrrpQFDmBlQQc+zhX0ic5Qgc3ner7Gg1RHh0iSdqrmGe5jLUP9LZxxXTmBWp7x6iulnwNY6deVz/BlukVnqKBW8gu+yG0+j1CSEmcLU3mIeob6uzjTOnIM8Cx10SHSvnEAK+16cDmfpXN0hgpoM7dxGbeyJjpEkrQb63mQJ+jAEO8NnWEdOJZOTKMmOkTaFw5gpVsfvsrH6BCdoYKpZTJf4Xu84EVXkpRojSznbmbThyEeX2ZWOybRgelOYKWZb1BKs8Fcx0W0i85QgTTzDN/mSp6hPjpFktQC9czjTlbTj4HeFiujyjiSoUxje3SItLccwEqvwVzNeyiNzlCBLOf7fIX7vOWVJKVKFdN4gG2MpHt0igqilIMYwJNOYKWVA1hpNY6reJefL2fUFv6Pz/F7NkWHSJL2wmYm8wgVjKBjdIoKoISDGMIMf0srnRzASqcJ3MxZzt9MquERLuP7LKM5OkWStJeaWc19zKIfA/2qUgaVcCAH8Azro0Ok1nN4WXEvAABmbElEQVQAK43G831OjY5QQTzHd7iCZ/3WrySlXh3zuJM1DKdvdIoKYBT7M50N0RlSazmAlT6Hc4PzN5NW8r98iTupig6RJLWRKqbzEHWMpEt0itrcSMYzk7XRGVLrOICVNifwY46OjlCbq+YOLuXnrIsOkSS1sfU8wFN0Y6QXQ2fOSA5jHsujM6TWcAArXU7gFiZGR6iNNTGNy7maeTRFp0iSCqCJpdzNMgbR36c3ZMxgJvG8E1hp4gBWmpzAzc7fzFnBLVzGI9RGh0iSCqiWZ3iAKkbSLTpFbao/hzPbCaz0cAArPU5y/mZOJX/l8/yGzdEhkqQi2MxkHqczI2kfnaI21J8jPAus9HAAKx1KeBvfZ3x0htpQI09zBdeyyMcdSVJuNPMi97GYwQzwYugM6c8RvMjC6AypJRzASoMSzuEGRkZnqA2t4SYuY7IXPktS7tQyk3upY4x3hs6Q/pzAMuZFZ0ivzQGs5CvhbdzA0OgMtZkq/snn+LUXPktSbm1lCk/SnRGUR6eojXTnWJY7gZV8DmAl3b/O/jp/s+N5ruBbLPCOz5KUa40s4y5WMZJ+0SlqI905xrPASj4HsJKt1LO/mbKO/+VS7vXCZ0kSUMtTPEgJo+gUnaI28a+zwPO9u4eSzAGsJCvhbXzP+ZsRDTzMpfyYtdEhkqQE2cD9PMcAhnpTrEzwLLASzwGs5PLsb5Ys5jq+yrM0RodIkhKmkYXcw2ZG0TM6RW2gO8eyzLPASi4HsJLKs7/ZsYO/8gX+yI7oEElSQlXyGE/SnZHeFCsDunkWWEnmAFYyOX+z4zmu5CoW+0mwJGkPmlnBPSxnJP2jU7TPunOMd4RWUjmAlUTO36zYwC/4PPd70ytJUgvUMoOHaMdoKqJTtI+cwEosB7CSxwcfZUMTT/JFbvGmV5KkVtjA/cxhBIMoiU7RPvF2WEooB7CS5xxudP6m3lpu4ks86U2vJEmt1Mg87qeKcXSJTtE+6c6xLGZ+dIb0cg5gJc3x3MzI6Ajtk0bu4Yv8gs3RIZKklNrKI8ygD6N8OFKqdedgZrI8OkN6KQewkmUiP+Cg6Ajtk+Vcx+XMoik6RJKUYk28wP1sZT+6R6doH/RlIk/6dSgliQNYSTKQ6zklOkL7oIY7+SK/9YFHkqQ2UMmjPEs/hnvEmmKDGMxkjwyUHL6dKDm68A3e7S0vUmwx3+YK5vnAI0lSG2lmKXexgf3oGZ2ivTaWCh6iITpD+hcHsJKihEv4HO2jM7SXarmdT3Mb1dEhkqSMqWEaj9OHUbSLTtFeKeEgNvKUH5ArGRzASoozuJre0RHaS0v4Bt/gBX+1SZIKoJmV3Ms69vc8cEqVM5HnWBydIYEDWEkxlBu8+VVK1fB3PstfPfcrSSqgGqbxJD09D5xS3RjOA2yLzpAcwEqGCr7KuX77N5WW8B2+zqLoDElSDqzgXjYx1vPAqTSMMib7TWDFcwArCd7KV6mIjlCr1XI7n+Kv1ESHSJJyooYn/T5wSpUwjnnMjc6QHMCKN4rrGRMdoVZbuvN7v5IkFdO/vg98AD2iQ9RKFQzlfrZGZyjvHMCK1o7P8k4vf06ZOu7hk37vV5IUooZpPMMAnw+cOoOp5hGaojOUb75tKNqJfIOu0RFqlVVcw+XMj86QJOXYMu5jGwd4DJEqJezHdJZGZyjfHMCK1ZVvcVR0hFqhmQf5DL9jR3SIJCnnKnmcWQxmhNeRpUgXunA3ddEZyjMHsGK9g0/RPjpCLbaBG/kKM33eryQpAZp5gQdoZH86RaeoxQazgOejI5RnDmBF6sNVjI2OUIs9zmX8mC3RGZIk/cd2JrOAUQyODlELdaQP/6QqOkP55QBWpHfwYcqjI9QiW/kln+Mxb1whSUqYJubyEB0ZS4foFLVIfxYwMzpC+eUAVpx+fN3zvykxh69wPeuiMyRJ2qVNPMBKxtI3OkQtUE5X7qYyOkN55QBWnLfzER9jnwI1/I3PcDcN0SGSJO1WA8/yGH0Y49FtCgxinueAFcW3CEXpylXsFx2h17SCq7iCJdEZkiS9pjXcz3b2p1t0iF5DO7pzm/eCVgwHsKK8iY/4XZ2Ea+ZhPsfvqY4OkSSpRap5nJkM9dFIideLGcyPjlA+OYAVoxNfYFJ0hPZoKz/iUp71kUeSpBRpZjEPUcIBfsyeaB2p417qozOURw5gxTiQy7xAKdHm8UVuYlN0hiRJrbaVh3iR8fSJDtEe9OVe1kRHKI8cwIrxAc6JTtBu1XAbn+VeGqNDJEnaK43M5Al6eUusBOvGMqZGRyiPfFNQhF5czrDoCO3GWq7m67wQnSFJ0j5ZzcPsYAJdokO0Gx35m/cZUfE5gBXhFD5ERXSEdukxPs+vfTafJCkDqnicuYxmcHSIdqkL01kYHaH8cQCr+Er4AK+LjtAu1PIbPsOTNEWHSJLUJppYwMN0YzztolP0KhUs58HoCOWPA1jFN5DLGBIdoVdZzjf4trejkCRlzCYeZCMHevPNBGrPP9kRHaG8KY0OUA6N4oDoBL1CMw9zATexPTpEkqQ2t53v834e9sF+iXMAo6ITlD+eAVbxvY8zfTx9olTxMz7PzOgMSZIKpJklPExHJlAenaKXKGchj0ZHKG8cwCq2cr7A2OgIvcQyLue7rI/OkCSpoLYymbUcSI/oEP1HCTX82XuPqLi8BFrFNoqR0Ql6iclcwA/9/o0kKQd28EMuYHJ0hl5itBdBq9gcwCq2/b0BVmLs4Ad8wAMBSVKOTOYD/MAPfhNjCPtHJyhvHMAqtgPpGp0gAJbzRT7PkugMSZKKagmf54u8GJ0hALpyYHSC8sYBrOLqzIToBAHNPM4F/Iiq6BBJkoquih9xEU94V+hEmEDn6ATliwNYxdWJcdEJopZf8F4e9qYTkqScauI+3sOt1EWHiHF0ik5QvjiAVVz9GB6dkHtr+TKfZnF0hiRJoRbzGb7G2uiM3BtOv+gE5YsDWMW1HxXRCTk3kw9zA9uiMyRJCreF6/gwM6Mzcq6C/aITlC8OYBXXaNpHJ+RYI3/lffydxugQSZISoZG/8z7+6m/GQOVeHajiahcdoJwZ4n/nwmzhR9zgpV6SJL3Mc3yEBVxMj+iQnCpnWHSC8sUzwCquwdEBubWYz3C581eSpFdZy+V8xrtjhBkaHaB8cQCrmHrQKzohl5qYyoX8wntdSpK0S3X8gguZ6vMRQvTy7LuKyQGsYupGt+iEHGrgVj7A5OgMSZISbTIf4Dc0RGfkUGe6RCcoT/w+poqps486L7pNXMcP2BqdIUlS4i3ik8zns16vVmRd6RqdoDzxDLCKqZMPQSqyBXyca5y/kiS1yBau5uMsiM7ImQ50iE5QnjiAVUxd/ISvqB7mfH7nox0kSWqxRn7H+TwcnZEr3ekenaA8cQCrmEqiA3Kkll/yfp6MzpAkKXWe5P38ktrojNwo8QhRxeR3gKUs2sj3+D7bojMkSUqlZXycxXzauxNL2eMZYCl7FvNRrnH+SpK017ZzNZ/w2cBS9jiApayZwoX8gfroDEmSUq2WX3MhT0RnSGpbDmApS+r5Ax/0mb+SJLWJyXyAP/tsYClLHMBSdlRyAx9nfnSGJEmZMY+PcwOV0RmS2oo3wVJxeZe/wlnDd/gJNdEZkiRlyhq+yotcxoDokMzy6FBF5RlgFVOjFxEVzCw+xM3OX0mS2lwNN/MR5kRnZFYDjdEJyhMHsIppE5ujEzKpiQe5iNtpig6RJCmTmriN/8cj0RkZtZlN0QnKEwewiqnBexMXQD2/5f/xVHSGJEmZ9rhPWSiQeq8QVDE5gFVMW9ganZA5lVzPp1gSnSFJUua9wEe53htitbmtbIlOUJ54EywV0w52RCdkzGq+w8+ois6QJCkXNvJ1VvJl+keHZIrHhyoqzwCrmCrZEJ2QKQv5CD9w/kqSVDRV/ICPsSg6I1M2eFZdxeQAVnEtpzk6ITOmciF/876JkiQVVSN/5gNMjc7IjGaWRycoXxzAKq7l3jyiTTTxdy7xl68kSSGmcgl/9+kLbaKeF6MTlC8OYBXXYuqiEzKgjp9yCc9HZ0iSlFvPcwk/9aimDdQyPzpB+eIAVnEt8Vse+2wL13Apq6MzJEnKtdVcyjXev3ifVbIsOkH5UhYdoNw5jRHRCam2hq9wk3dLlCQpXA2PsYkj6RwdkmpP80uqoyOUJ54BVnFVeZnLPlnAR/gZtdEZkiQJqOWnXMyC6IxUm+vVgSouB7CKq4bZ0Qkp9jQf4jYaojMkSdJO9fyVD/F0dEaKPe8H+youB7CKbQ7roxNS6j4uYnJ0hCRJeoXJXMR90REptd5rA1VsDmAV2zxWRCekUCO/48PMjM6QJEm7MJOP8gcfi7QXVjAvOkF54wBWsa1iTnRC6lTzAz7NkugMSZK0Gwv5FD/2Zk6tNodV0QnKG+8CrWJrpg9v9KOXVtjK9XyTzdEZkiRpD3bwCKUcRvvokBRp5Ac8FR2hvHEAq/jqeTtdoiNSYz1f5SaqojMkSdJrqOMxNnMMFdEhqbGe77A2OkJ54wBW8dVxJOOiI1JiOZ/l19RHZ0iSpBZo5FmWMYnu0SEp8RC/pCY6Qnnjhagqvs1MpTk6IhVm81H+z8ceSZKUGvX8jo/60McWaWaqX/FS8TmAFeEhVkYnpMCTfIQ7oiMkSVIr3cFH/GZrC6zkoegE5ZEDWBFm+WvhNT3Ih3gkOkKSJO2FR/iw4+41PcWs6ATlkd8BVoRGOvAWP37ZrWb+yue9fEqSpNRazTQGMJ6S6JDEauRqnomOUB45gBVjO6fSPzoioRr4A59lcXSGJEnaBxt4lIGM9wP/3Xiea/0GsCI4gBVjK8M5Pjoiker4AZf5SABJklJvO5Op4DCPt3fpVv7iTVEVwb8hFaOZbbyRbtEZibODW/i6n4dKkpQJ1TxORybSPjokcVZyBSuiI5RPDmBF2cBBHBwdkTBb+Sbfpio6Q5IktZFaplLDkXSMDkmYv/O/NEZHKJ8cwIrSSCVvpFN0RoKs5VvcTF10hiRJakP1PEU1h9E5OiRBNnI5C6IjlFcOYMVZzQEcFB2RGKv4LD+jITpDkiS1sUamsZqj6Bodkhh/4xbqoyOUVw5gxalnO2+iIjojEZbzef5IU3SGJEkqgGaeZxVHefcTADbxFeZHRyi/HMCKtJr9OCQ6IgHm8jFud/5KkpRZzcxlLofRNzokAf7ID73mTVJeHctymnP+msOp0X8ZJElSEZzKnPDjjujXco6N/sugfPMMsGKtoS/HURKdEegJPsND0RGSJKkIljCHAxkUnRGomR/xG696k5RnI3km/LPIuNcUJkb/BZAkSUV0MFPCjz/iXs8wMvovgPLOM8CKtoVaTs/pA+Kn8lFmRUdIkqQiWsvTHMSw6IwQO7iCh6MjJClaF34f/nlk8V9N3OnZX0mScmkiD4YfiUS8fk+X6B+9JCXBJBaEvyUX99XInxke/WOXJElBRvMXGsOPR4r7WsCk6B+7JCXFB9kR/rZczNdfcnrpkyRJ+pdh/CX8eKSYrx18MPpHLknJ0Ymfhr8xF+vl2V9JkgTD+XOOzgL/lE7RP3AJyPXjZ5QsY7iV46IjiqCB2/gcy6MzJLWJMqCccpopoz0lQNl/burXk17/+ec1054Be7zdXx1rqHvJb+V1bNv5j+poBJqpo5ES6qkHGqP/4JLaxDCu5225OB5/lPezKDpCAgewkuQ0fsng6IgCa+AHfJP10RmSWqUE6EBPOtKTMnrSkfb0pIxedKeZXvSkiQr6Uwp0oc/O361lL3vSQgnt9vg7t5kGml/yjxt2PiezmQ3sAJpYSzWlbGYTsIltNLKZOmrYTCObqWEztfCyfw9JyTeEy7mA8uiMAlvJBTwQHSH9iwNYSXIJV9M1OqKA6vkRV7ApOkPSbpTRnk50oAMd6cBQujGArvSnE4MopzPt6UIZnWlPu0RcyldFA3VU0sgO6qiknlVUsZbtrGEbL1JLDdXUU7XzLLKkJOrFFVyc6Qm8nS/yw+gI6d/aRQdIL/FzhvKFzD6dupEfcgWbozMk7VRKKWX0pA996Etv+tCbHgygJz3oSwWlO1/J/aj4XyO8zyv+f5tp2vmqZj0b2M4atrCeDWxmPRvYwGYaadp5hllStE1cTjMfzezxTwM38/PoCOm/kvtrXfnUl+/yHkqjMwqgjh979lcK1oludKMLPRjCYAYwhCF0poJOdKJT5j8SrqeaKqqoppIVrGAlq1jFFraxne1URedJudaLK/jwHu8TkFZN3MoX2RCdIf2XA1hJM5QbOSc6os018gMu9+yvVGTtKKecvgxlKAMZyAD6M4C+9KA0kx+0tU4zzTSxhdWsZz2rWcUKVvMi66mnnoboPClnenIlH8ngWeDb+CQvRkdIL+UAVvIcwI85PjqiTdXxY65kY3SGlAul9KIPvenNfgxnOCPpTgWdqHDyvoZGqqmmmq0sYTFLWcJGNrKBTV4sLRVFby7P3FngqXyYOdER0ss5gJVEE7klQxO4gR969lcqoBIq6EB3RrAfwxhFfwbQn97+httHzWxkLWtYy2KWs5ClbKXWS6WlAurJlVySoa9jTOWjzIqOkF7JwwMlU3YmcD0/5Eq/+ysVQGcGM4ghjGR/RjOUTlTsfBav2lYzdVRTxYssZA4vsoJVrKQyOkvKoF5cziUZuSO081cJ5YGCkmoiN3NCdMQ+q+HHfN35K7WZLnSiNyMZz8EMoj/96OtvsiJrZj3rWMNy5jCXJWxkh+eFpTbTi8u5OAMXQk/hY85fJZOHDUqu8VzNWan+72gl3+EmtkdnSKlXSm/GMJz9GM9wxtGJ9hm8VUz6NFJHFfNZxCIWsoxFbPT7wtI+684n+QKdozP2QTN38EXmRmdIu5bmcaHsG85VvC21n4Ku4Wp+THV0hpRaFfSgN+M5kAMYTR9673zurZKoio1s4AXm8Dxz2cgW3/2kvVbBR/gifaMz9lIdf+VSlkVnSLvjAFay9eYyPkJFdMZeWMRX+aPnQqRWK6M9gziAAxjPKMbSh1J/V6VIM01sYAGLmcsc5rCKOhqjo6TUKeXdXMHo6Iy9UM0P+I5PvlCSeVChpOvK+/k8Q6MzWmkKX2ZKdISUKu0ZwCDGciiHMIye9PA3VMo1s4XNLGcGz7KAFazx2cJSK5RwMt/guOiMVnqRa7nVL38p2Ty8UPKVciZXckR0RovV8meuYFF0hpQKpVTQg4M4mAMZw1h6RQepIDYxj0U8xyxms5lqmqODpFQYwxX8Dx2iM1rsKS7nbq9+U9I5gJUO47mMd9AxOqMFVnIDP2FbdIaUeJ0YwRgOYRL704eu3tQqBxrYwXqe51lmsoil3jtaek3d+DCfZmB0RgvU8Ce+442vlAYOYKVFDy7gU4yIztijRh7hm0z2+27SbpXQld4cyFEczGhGpPIb/tp31SzlBWbyJM+zke2eEZZ2qx2n8CVOpDQ6ZI+WcgO/ZEt0htQSDmClRwnH8EXOTOxdodfyY37E6ugMKaHKGckEDuIIDqY3nfz9I5qpYiMzeYpZPMdy6qODpIQazkc5n/7RGbtRx91czeN+kKW08ABE6dKXd/JR9o/OeJUaHuIGHvQWL9KrVNCX/TiKSYxlGF2ic5RIO1jKIqYzlSVs8AFK0qu052Q+xWkJPAkwj1v4A+ujM6SWcwArfSbwMd5B7+iMl5jLLfyBDdEZUqKU0JX9OZxJHMYYKhJ++Z6SoIlqFvEM03mauezwfJL0Mn15Nx9mfHTGS2zkT9zM7OgMqXUcwEqjCk7go5xIj+gQYCn/x6+86YP0EhUMY39O5BiGMoB20TlKnQbWsJhpTGUeyz0fLL3EeC7kXIZFZwBbeIRbmOLfoUofB7DSqgtncD6nh15QuYo/81ue8ob/EgCldOUAjuYIjmAk5dE5Sr16lvAUT/EEs9nhO60EQClH8B7+h0GBDTu4n19xHzuifxjS3nAAK826cxIf4ISAy6GbWcTd/IqZ3rRFAsoYxTiO4TRG0NtzvmpTDWxiAQ/zJHNZ6l32JaCcibyfNzIy4Eh+C5P5OZPZGv1DkPaWA1hp15VjeRtvYGDRDrqrmccfuZPZHohJdGEQx3MyhzDGRxqpoKpYwDM8ylRWed5Joh0H8XrOZf+ivfc2sJq7+DtT2Rb9h5f2hQNYWdCBUbyJN3IY3Qv8n/Qij3IHD7DWm7Mo97pxMEdwEpPoRcfoGOVGDZuYxoPMYKYH4cq9EvpzGmdxHEML/J+0lWe4k3+ymNroP7S0rxzAyo6+HMIJvJ7RBbgkup51zORuHmM2NdF/UClUCX04gNdxFAcwMDpGubWaWUznfuawwQ8klXMdmcCxnMnB9CvA3Rc28gL3MIUZPupIWeEAVraU0oNDOJHDObiNLoquYR7PMZ1HmeudDpVzJfTnCI7mJCbS1d8fCtfMdmbxII8x0+tylHsVjOc4JnEoY9vkacENrGYmT/MIM9jiTeiUJR7AKJt6MoT9OZRDGUFPurf6As1KNrGRhTzDdBazxumrnCtjIAfyOk5iJD2jY6RX2MByJnMvz7PaezMo5yoYxEiO4DD2oze96NzKf30NW9nMMp5jGvNYweboP5DU9hzAyrIS2jGQMQxnJIMZxAD60JMySoESSikBmnceLjVSy3o2soYXeZGVLGAJW2mI/iNIwUrpw5GcynFM9Ju+SrQaZvEoDzKNDZ6tUu61ozsjGctgRjKQAfRhAGWUAVC28/iniWagiUY2s4E1rGIlS1jGIlbT6N9Fyi4HsPKigk50oiMd6ElvoDP9KQXqeZEmmllBNdXUUsUOZ68EwAAm8jpOZYRnfZUam1nKPdzNfNZEp0iJ0H7n8U8FHRlCCaUMpRxoYi2VwEY2U0sNVVR5vZvywQEsSXqlbhzBqRzPIQW/s7pUCFuZwVTu8U7RkqRXcgBLkv6rEwdyIm/g4ALcTV0qrg3M4k4mM4eq6BRJUlI4gCVJAB0Zwhm8nsMK/jxJqXiaWc4z3M2DrPAhdpIkB7AkCQZzLGdwOkMK8AxJKV49K7iPu5nGyugUSVIsB7Ak5VlPxvNmTuOAVj8sQ0qb7czjAW5nro92kaT8cgBLUj61Yyyn8XqOo0d0ilREW3iUe7iHF3xmsCTlkQNYkvJnIIfxNk5kBO2iU6QADSzhEW7jaR+WJEl54wCWpDzpwDjeyhkc5iXPyr1KpnM/tzOf2ugUSVKxOIAlKS8Gcixv4VQGURqdIiVEE6t4kH/wGKujUyRJxeAAlqTs68hY3swbOIyK6BQpgap5hrs8FyxJeeAAlqRs68uxnMMZ9KcsOkVKsEbWche38xjro1MkSYXjAJakrGrPcN7CmzmUbtEpUkps42n+wR0soz46RZJUCA5gScqiThzFOZzFMM/7Sq3UyBLu4B88SVV0iiSprTmAJSlrhnA87+ZI+keHSCm2lmn8jqmsiA6RJLUlB7AkZUcZ+/FWzuZQOkSnSBlQy7P8jb+zgKboFElS23AAS1I2dOJQ3sUbGOFFz1IbauQF7uTPPOsF0ZKUBQ5gSUq/HpzIeZxG3+gQKaPW8wC/5xG2RIdIkvaNA1iS0m04Z3AeR3inZ6nAtvEUv+EBlkeHSJL2ngNYktKqHaN5G2dzGO2iU6ScqONZ/sLfWExjdIokaW84gCUpjco4hHM5h9GURqdIOdPIQm7jL8xwBEtS+jiAJSltOnEE7+M0RkaHSDm2hLv5PU97ayxJShcHsCSlSSdO4228ydtdSQmwnjv4E49QGR0iSWopB7AkpUUfjuZCTqZndIik/9jEZH7GVLZGh0iSWsIBLElp0JM38V6Oo0t0iKRX2cZD/Jl/sjk6RJL0WhzAkpR0fXgdH+AYOkeHSNqtSh7nF9zLhugQSdKeOIAlKcl68QbO53g6RYdIek1VTOVX3MWm6BBJ0u44gCUpqfrwet7vmV8pVSp5nFu5xzPBkpRMDmBJSqI+vI73c6zjV0qhSh7jVi+HlqQkcgBLUtL04o2cz/FURIdI2mvVTOVX3Onl0JKULA5gSUqSfpzuDa+kjPjXjbHuZ110iCTp3xzAkpQUnTmLCzmRjtEhktpMDQ/zY+6lKjpEkgQOYElKhm6cwEWcRrfoEEltbjMP8zMepjI6RJLkAJakaB04ig9zluNXyrCt/J2f8QR10SGSlG8OYEmKVMYRfIg30T86RFLBreXv/JRnaIwOkaT8cgBLUpRSxvFBzmZkdIikolnCn/kZC2mKDpGkfHIAS1KMYZzPexkXnSGpyJpZwG/4FcujQyQpjxzAklR8/Xg7H+BwSqNDJIVo4ml+wt/YEB0iSXnjAJak4urMG7iE4+gQHSIpVC2P8CPu8d7QklRMDmBJKp4OHMPFvJ4e0SGSEmETd/G/PEZ9dIgk5YUDWJKK5QAu4Vz6RWdISpS1/IafMTc6Q5LywQEsScUwhHdzEWOjMyQlUDML+Rm/Y0V0iCRlnwNYkgqtK2fzIY6hLDpEUmI18jg3c4ffCJakwnIAS1IhteN4Ps7r6RwdIinxtnMXP2QqDdEhkpRdDmBJKpxxfIh3MSg6Q1JqrOD3/Iz50RmSlFVekCdJhdGHC7ias+kaHSIpRbpxLCcBi6iJTpGkLPIMsCS1vY6cysc5mY7RIZJSqYb7uIlHqIsOkaSscQBLUls7gIt5Lz2jMySl2lp+x49YEJ0hSdniJdCS1Jb6chHX8CYqokMkpVwXjuFkGllGVXSKJGWHZ4Alqa204yQ+xZm0iw6RlBk13MuNPOKdoSWpbTiAJaltjOZDfIC+0RmSMmc1v+J/eSE6Q5KywEugJWnfdeVdXMf/+LRfSQXQleM4jkqWeFMsSdpXngGWpH1TymF8hrfSKTpEUqZV8le+x7PRGZKUbp4BlqR9MYCLuZoTKY8OkZRx7TmY0yhnoTfFkqS95wCWpL1Vxulcy0X0iQ6RlBO9OJVDWcmLNEenSFI6OYAlae8M5/N8nYN9H5VURGWM4Qx6sYBt0SmSlEYeuElS67XnHK7lXXSNDpGUQ105niPYxgs0RqdIUto4gCWptcbxJb7MOG8jKClICcM5g/68wKboFElKFwewJLVGZ87lOs72ns+SglVwFEexnaXUR6dIUno4gCWp5fbnCr7EcM/9SkqAEoZwJoNYxIboFElKCwewJLVMJ87lBt5A++gQSfqP9hzGiWznBc8DS1JLOIAlqSX25+t8kWGe+5WUMCX05wyGstDzwJL02hzAkvRaOvMuruNNdIgOkaRd6sBhHMd2FtEQnSJJyeYAlqQ9G82VfIlh0RmStEcDOY2+zGdLdIgkJZkDWJJ2ryNn813e6vd+JaVARyZxDFtYSFN0iiQllQNYknZnMJdxOWOiMySphUoYwhl0Yx7bo1MkKZkcwJK0K2W8jhs51+f9SkqZCo7hSFawjOboFElKHgewJL1aXz7Jt5lAaXSIJLVaKcM5jfbMpiY6RZKSxgEsSa90LNdwEd2jMyRpr3XjBCawhJXRIZKULA5gSXqprnyAaznGd0dJKVfG/pxANQupi06RpOTwEE+S/mssV/IF+kdnSFKb6MMZ9Gcum6NDJCkpHMCS9C/teRM3chbl0SGS1GbKOYxJrGOJj0aSJHAAS9K/9OJzfIsxlESHSFKbKmEoZ9CBWd4SS5IcwJIEcCTX8wG6RGdIUkF05gT2ZxGro0MkKZoDWFLedeSdXM9xvh9KyrBSxnMCW1hAY3SKJEXygE9Svg3lK3yVIdEZklRwfTmdLsxhe3SIJMVxAEvKrxKO47ucR0V0iCQVRQeO5iCWsiI6RJKiOIAl5VUF53MtR1IaHSJJRVPKGE6gink0RKdIUgQHsKR8GsZX+CKDojMkqeh6cxK9mcvW6BBJKj4HsKT8KeFYL32WlGMdOZIDWcjK6BBJKjYHsKS86cj5XMeRPvFXUo6VMJoT2cICL4WWlC8OYEn50o/L+BKDozMkKVxvTqUrM6mKDpGk4nEAS8qTidzABXSKzpCkROjI0ezHbNZHh0hSsTiAJeVFO87iZk7wrs+S9B+ljOdYVvECzdEpklQMDmBJ+dCdj/NtRkVnSFLiDOAkYDa10SGSVHgOYEl5MIqv83F6RmdIUiJ15XgG8BxbokMkqdAcwJKy7xi+z9soj86QpMQq53AmMI9V0SGSVFgOYEnZ1oFzuZHDojMkKfFGcywbWURjdIgkFY4DWFKWdeezXMmQ6AxJSoV+nEIJM6iLDpGkQnEAS8qukVzFJXSNzpCk1OjEsQzgeb8NLCmrHMCSsupIbuJs2kVnSFKqlHMoBzGfldEhklQIDmBJWVTG2XyfIymJDpGk1ClhFMewikU+G1hS9jiAJWVPZz7KN33mryTttX6cSB2zaIgOkaS25QCWlDX9+Bpf9Jm/krRPunIKnZhJZXSIJLUlB7CkbNmf73IB7aMzJCn12nEkY5jFhugQSWo7DmBJWXI8N/F6SqMzJCkTyjiAQ5nDiugQSWorDmBJWVHO2/g+h0RnSFKmDONEVvICTdEhktQWHMCSsqEDl3ANQ6IzJClzenMSlcyiMTpEkvadA1hSFvTiy974SpIKpAvH05lnqY4OkaR95QCWlH7DuZYPURGdIUmZ1YGjGcAMtkaHSNK+cQBLSruJ3MDbvfGVJBVUKYewP8+xNjpEkvaFA1hSup3C9zkpOkKScqCE/TiM+SyPDpGkvecAlpReJfwPN3JQdIYk5cYQjudF5kdnSNLecgBLSqsOXMjVDI/OkKRc6c0JbGO294SWlE4OYEnp1JVP8w16R2dIUu504yQaeYb66BBJaj0HsKQ06sOVfJpO0RmSlEsdOZ4eTPOxSJLSxwEsKX2GcQ0foH10hiTlVjsOZxDP+lgkSWnjAJaUNuP5Luf62CNJClXGIYzgWTZGh0hSaziAJaXLofyA10VHSJKA/TmYGayJzpCklnMAS0qTU/khR0ZHSJJ2Gs4RLGJpdIYktZQDWFJalPEmbuDA6AxJ0ksM4kgWsZTm6BBJagkHsKR0KOWd3MSo6AxJ0iv05RRWMTs6Q5JawgEsKQ068v/4FoOiMyRJu9CNY9jGHBqiQyTptTiAJSVfOZ/g6/SJzpAk7UZXTqSGaTRFh0jSnjmAJSVdD77A5+kRnSFJ2oOOHEkZM6iNDpGkPSmJDpCkPerG5XyM9tEZ0mtopJlammmijiaggXqghBpWveTmQI2so+oV/8r2DKD8P/+ohEF0pBkopx1QSntKKaEDJX5orcSr42auZFt0hiTtngNYUpL14zIuoUN0hvQSzTSxgTrWU88mathCLVvZTCNrqKWBNdRTwmY27/xn17/sX93wqktES2j3st/G5Tv/UU960kw5A2hHBwZQRk+604EedKQX5fSlPX0o9Te5EqWWH3AlW6MzJGl3/LUpKbkGcxXvfMm5ManYaqje+VrHJl5kIxtZw3a2Uc82GthBHZVFffxLCZ1pTxfa0Y1yutGVAfSmN0PpRT8qdr46Rv/glGN1/JavsjI6Q5J2zQEsKakG8l3e5buUiqqRJnawkrWsYy1rWc+6nf+vniYaaUrks05LKKWMUsrpSz/60o+B9KY//ejPYLpQ6sXTKrLf81lWR0dI0q54aCkpmYZyFef5HqWCa2YbW9nMZlawlBdYzgZ2sINKKqPT9lFnOtOFLvRhGKMZwRB60pPudPPvKxVcM7/nC54FlpRE/hKUlET7cw1n+Q6lAqmnnq0sYxlLWc5KVrOCDbv4dm6WlNKOPgxhIIMZxmiGM4TulPsVAxVIM3/iS7wQnSFJr+ThpaTkmcCNnBYdocypYR1rWMNi5rKA5VRSRWWmR+/ulNKFTnRiBOMZwygGMIB+fm9Ybe4+Ps3s6AhJejkHsKSkGc9NnB4doYxooJoqFjGXRcxnNStYQ2N0VMKUMYAhDGQcYxjPGDpRQbvoKGXE/XyCudERkvRSDmBJyTKBmzg1OkKp18CLLGM5zzOPeWygmpropBToSAV92J/9OZBhDGeoQ1j77EE+4VlgSUniAJaUJAdwo2d/tddq2cJ65vEsz/Eiq1ifyHs2p0EJfRnEUA7iUMbTl+4+jVt77X4+yZzoCEn6NwewpOQ4gO979ld7oYE1zGU+zzOL+VRR6/BtIyW0pzv7MYGDmMBY+ntOWHvhQT7uBJaUFA5gSUkxgRs8+6tW2cY6XmA6M1jAGjY4ewuohP70YxyHcSij6Ue36CClyv18yguhJSWDA1hSMozn+975WS1UyxpmMYNZzGK553uLqoQODGMiEzmEiQykfXSQUuIBPu7tsCQlgQNYUhJ49lct0chylvIMk5nPejZH5+RcT/pxMEdzCKMYQll0jhLPs8CSEsEBLCne/tzs2V/tQSM7WMR0nmQWC9gRnaOX6cIBHMBRHMsIOjuEtQcP8FHmR0dIyjsHsKRoQ7mZt0RHKKHqWcZsnmQqC9hCbXSOdqsDvRjD8RzFBIZTHp2jhPorn2BldISkfHMAS4rVnRt4f3SEEqeZbSxjMo8zhwVUR+eoxSoYywSO53iG0c2jDL1CMz/jc2yNzpCUZ/5qkhSpA1/lC54t0susYyZP8BhPsZX66BjtlfZ04wiO5WgOpl90jBKljmv5hldzSIrjAJYUp4SLuJYe0RlKiFrWMJe7mMYLrI+OUZvoy2iO5I2Mpz8domOUEJv5NL/y3u2SojiAJcU5mV8wIjpCCdDECh5nMpNZTE10jNpcZ0ZxPCdxDEMojY5RAizlfUyNjpCUVw5gSVFG8muOi45QsHpeZAZ38zhLvbtzxnVhBMdwJocw1K895N6DvJ8XoyMk5ZMDWFKMTlzHJdERCtTAWqbyMI8yn7roGBVNe8ZxHCdzPP1pFx2jMM3czKVURWdIyiMHsKQY7+dGukVHKMgKnuYuprDcs7451YWhnMIbOJih0SkKso2P8NvoCEl55ACWFOFA/sAB0REKsJHZ/IOpPE9ldIrCdeZAjuctHETP6BQFeIbzWBAdISl/HMCSiq8zN3FhdISKrJrneZjbeY4t0SlKlJ4cwhs4mQOpiE5Rkf2Yz/pRmKRicwBLKr538SO6R0eoaBpYwSPcznSWRacosYYziTdzIkP8ZnCObOVi/i86QlLeOIAlFdsQ/sCx0REqkq08zj3czWJvdKXX1J5RnMUZHOUHZLnxGO9kRXSEpHxxAEsqrjIu43LP8eRADQt5iL/xHBuiU5QqfTmQt3MaI+kQnaKCa+ByrqIpOkNSnjiAJRXXwfyd4dERKrBNTOWf3MsymqNTlEqljOI0zuJE7xWfeS9wNs9HR0jKEwewpGJqz41cHB2hAmpgAQ/yR291pTbQg8N4Oycz1mtGMu16LvMrEpKKxwEsqZiO5w8Mio5QgWznKf7M/Szygka1mVLGcCZnM4ku0SkqkJW8i6nREZLywwEsqXg6ciMfio5QQSznYf6PaWyMDlEm9eY43sEpDI4OUUH8hE9SEx0hKS8cwJKK52huY0B0hNpYLQv4G/9glhcxqqAqmMhbOIdR3hwrc1bzZp6OjpCUF2XRAZJyo5RP8rroCLWpSqZwI1/n76ykMTpGGdfASh7mnyymM/0oj85RG+rKNh7wlnmSisMzwJKKZSJ/YUx0hNrMOibze6ayPjpEudOfEziPE+gbHaI2M5//8V7QkorDM8CSiuV8zvVDt4xYxu+5ku/zPFXRKcqhSuZwO9OpYqCPScqI3izkiegISfngwaik4ujHHUyKjtA+a2Qh/+B3zPeWNQrXkfGcx1sZ7cf5GTCFs9kUHSEpDxzAkorjbdxK1+gI7ZMG5vM7/sgLfldPiVHGGN7Ouxnns4JTbhvv5fboCEl54GemkoqhA5/kmOgI7YN6pnEtl3OnDzpSojSzkUe5iyX0YIBHNSnWgW3c7TPEJRWeZ4AlFcM4bmN8dIT2UjXP8Uv+wYroEGkPhvAWLuBQ7w+dWnM5h/nREZKyzwEsqRjeza88N5NK1UzhV9zHuugQqQUG8jbO4Rg6RYdoLzRyPr+LjpCUfR6QSiq8cj7NodERarVKHuHrXMcTVEanSC2yg+ncxWy605/20TFqpVJ2cIcXQUsqNM8ASyq84dzL2OgItcq/zvze5V1ZlUq9eAMXcYI3xkqZ+ZzGyugISVnnGWBJhXcG76FDdIRarJan+QZX8QTV0SnSXqnmOe5hKX3o6whOkfY8w5zoCElZ5wCWVGglXMCp0RFqoQae4lquYApV0SnSPtnBU/yTF+nDAEqjY9QiHVjEg9ERkrLOASyp0PryUUZHR6gFmnie7/JVHmBHdIrUJnYwnbvZQH/6OIJToZp7/PBNUmH5HWBJhXYQ9zIgOkKvaSG/4M8sjM6QCmA/3skHGBWdode0hjN4PjpCUrZ5BlhSoZ3I+Z57SbgV/JRLuY2N0SFSQWxiKg9QxzC6Rqdojzpwv88CllRYDmBJhXYup3i1SYJt5P/4MreyNjpEKqBm1vEwj9GOYVREx2i3SpnP5OgISdnmvRElFVYZhzp/E6uKB/gRD1AbHSIVQS1TeYo/cDGn0Sk6RrtUwkRKfRawpEJyAEsqrN4Mi07QLjXwNDdzl5c9K1dquJMneQsf5nCPgRJpJL1ZHx0hKct885dUWEPpEZ2gXVjEz/gNK6IzpAAb+QX38V4uYkx0il6lO4MdwJIKye8ASyqsSZxHx+gIvcwafs0XuI2t0SFSmG08xsPAULpEp+gVHmRBdIKkLPMMsKTCGkT36AS9RDX38EMepCE6RArWxCw+wT/4KKd5W6wE6e5j8yQVlgNYUmH19xZYidHMM/yEP7IlOkRKiAbu5knewSUc7DtVQpQyODpBUrY5gCUVUnv6Ridop1Xcyk9ZEp0hJcxmfsJDfJD3MjA6RQD0oT110RGSsqs0OkBSplUwKDpBQCV/5Fy+5vyVdmkhX+I9/J3q6BABg7wkXVIheQZYUiG1p2d0Qu41M4Nb+LO3vJL2oIGHmMHb+agXQ4fr4tGppELyLUZSITmAo23g19zCC9EZUgps5qdM4WLeS5/olFzrR4foBElZ5iXQkgqpxI/ZAtVzP+dzmfNXarH5XMr53E99dEiOlXgOXlIheWgqqZA6eBOsMEv5Ib9gfXSGlDK13MVTfJAPMTw6Jad6Uh6dICnLPAMsqZDK6BidkEtV/JHzuNb5K+2V9VzNefyZquiQXOpO++gESVnmAJZUSM3RAbk0j0/z/3jCn7601xp5nA/yaeZHh+SS712SCsgBLElZso2f8D/8hO3RIVLqbeEnvJNfsS06RJLUdhzAkpQdM/gYn2Z2dIaUGTO5hI8xIzpDktRWHMCSCsl7eRbPNv6X8/i131qU2lQVv+Y8/tfzwEXkbw5JBeQAllRIDc6xomhmJh/l08yLDpEyaR6f5qPM9LupRbHNh1BJKiQHsKRCqvU+xEVQyf/yLn5DZXSIlFmV/IZ38VNqokNyYDN10QmSsswBLKmQmmmKTsi82XyMz3ruVyq4eXyGTzInOiPzmjzTLqmQHMCSCqmODdEJmVbD73gPt7IjOkTKhR38hHfzR2qjQzJtg2eAJRVSu+gASZlWx5bohAxbwk38gq3RGVKuzOTDPMknGB4dkllbHMCSCskzwJIKye8AF0ojd/M+bnT+SkW3hRt5H3f7BY8CWecZdkmF5ACWVEi1rItOyKT1fJsLeNRvykkhGpnChVzNpuiQTFrtAJZUSA5gSYW10rMkbW46/49v+tGCFGo1V/Jhno7OyJwm1kYnSMo2B7CkwlrDtuiETKnmVt7HP/yOnBSulj/zHn7j+co2tY010QmSss0BLKmwVnobrDa0ksv4BPOjMyTtNJ+PcSkrozMyZIs/TUmF5QCWVFjL/ZZcm5nM+dzE9ugMSS+xlRs5n8eiMzJjE8ujEyRlmwNYUmF5MNM2dnAzF/Cgt72SEqeZB7mAn1EdHZIJfmgqqcAcwJIKq5E50QkZsIzP80WWRWdI2o1FfJLLWBGdkQFzaIxOkJRtDmBJhTadhuiEVGvmEd7Hj6mKDpG0B5V8nw/wmFdp7JMGpkcnSMo6B7CkQlvIhuiEFKvh57yfKR5US4nXxP28l597V+h9sNab/EkqtLLoAEmZV8KJjIqOSKm1fINv+1RMKTW2MJltTKRLdEhKPc5vvNpFUmF5BlhSoa3j6eiElHqWD3Kjd32WUmUr1/NBno3OSKmnvWJIUqE5gCUV3jS2RSekTiN/4Xxu93YwUuo0cjsX8Hf/7m21rX4DWFLheQm0pMLbzjn0iY5IlW3cwpdZEp0haS+t40FKOZAO0SGpspRr/LhUUqE5gCUVXjVHc1B0RIos5wquZ2t0hqR9UMkUNnIQ3aNDUuQ+fkNTdISkrHMASyq8JjryFr9y0UJP8Sn+RH10hqR91MAzzGY8g6JDUqKBa5kRHSEp+zwglVQMz7I4OiEVmriNC7jXcyBSJjRxLxdwu39Ht8hCnopOkJQHngGWVAxbOJDDoiMSr5pb+JLf/JUyZT0PU8YhlEeHJN7fvABaUjE4gCUVQxNlvNHbwezRGq7gWrZEZ0hqYzuYwnYO9tnAe7SNa5kTHSFJktRW+vA4zb52+5rD2X4kKWVWGeeyIPx9Jsmvx31WgKTi8HBLUnFU0ZPTKYnOSKiH+Qz30hydIalAmpnNTMYyLDokoZq4ifujIyTlgwNYUrHs4Ax6R0ckUCN/4xPe+1TKvGVMZTijvQHpLizgW6yPjpCUDw5gScWygZEcHR2RODX8lC/wYnSGpCLYyGQ6cxDtokMS59f8zmtgJBWHA1hSsTSznrO9DczLbOEqvsWm6AxJRbKDKdRyGB2jQxJlJZeyOjpCUl44gCUVz2bG+DCkl3iRr/BDqqMzJBVRHU+ykcPoGh2SIH/kVzRER0iSJLW9k1gZfq/RpLxmc7bfBZRyqZRzvCf0f17LOT76L4ikPPEMsKRiWsEQvwcMwON8yvs+SznVzDxmciCDo0MS4VZ+6nuhJEnKqkNYEn6+IfrVyD0cFP0XQlKwg7mPpvD3o+jXQiZG/4WQlC+eAZZUXOvozIk5v/T3//gUC6IjJAVby6MM4MDojFANfI+/4vlfSZKUYUN4IvycQ9yrhpsYEP2XQFJCDOEnVIe/L8W9pjAk+i+BpLzxDLCkYtvGNt5I++iMEFXczBVsjM6QlBDbmEwnjsjp8VglX+bx6AhJeZPPN1xJsZYyJJePQ9rK17mWHdEZkhKklsep4ohcPhn4V3yf+ugISZKkwjuAWeGX3hX7tZpP5PS8t6Q9a8/n2Bj+HlXs1ywOiP7BS5IkFcv5bAs//CrmayXvyfmtvyTtXhnvzdlT0rdxfvQPXVI+eQm0pBgL6cskSqIzimQJX+J3eKdTSbvWzHOs4Qi6R4cU7c/7v9zk5c+SJClPRjI5/BxEcV5zOC36hy0pBc5ibvj7VXFekxkZ/cOWJEkqtlNZHH4YVvjX85wa/YOWlBKn8nz4e1bhX4t9V5QkSfn0fraHH4oV9jXTAz1JrXAqs8Pftwr72s77o3/IkvLM7wBLijSH9hyb4XeiKVzME9ERklJkCbPYn6HRGQVTz3XcQmN0hiRJUoye/Iym8DMShXlNYWL0j1dSCk1kSvj7V2FeTfyMntE/XkmSpEhDuC2TE3gKB0X/aCWl1EGZnMBN3MaQ6B+tJElStLEZvB/0I579lbQPJvJI+PtYW78mMzb6xypJkpQEWbvgz7O/kvZV1s4C+6UQSZKk/8jSBPbsr6S2kKWzwM5fSZKkl8nKBPYwT1Jb8X1RkiQpsw7ibhrDD9T25dXEXxkT/WOUlCH7p/42gY3c7ZdCJEmSdmUYv0/xBK7jVoZF/wglZcwwfkN9+Pvb3s/f3/u+KEmStDv9+S6V4Ydse/PaxnfpFf3jk5RBvbmebeHvcXvzquS79I/+8UmSJCVZZz7PmvDDtta+1nAxnaJ/dJIyqoKPszb8fa7174ufp3P0j06SJCnpyjmHGeGHbq15TeMsSqN/bJIyrIy38mz4e11rXjM4h/LoH5skSVI6HMwfqQk/gGvJq5rfcED0j0tSDhzCH1LyvljHnzg4+sclSZKUJj35AivCD+Ne67WCz9A9+kclKSd6pOR98UveEUGSJKm1yjiJu6gNP5jb3auGf3IyZdE/Jkk5UsbJ/JO68Pe/3b1quYuTfF+UJEnaO324lGXhh3S7er3AZ+gT/eORlEN9+AKLw98Dd/VaxqW+L0qSJO2LMo7ml2wOP7B76WsDP+UwSqJ/NJJyqoRJ/IJN4e+FL31t5pcc7blfSZKkfVfB27ib6vADvGaaqeKfvMVHHkkK1olzuCshN8Wq5m7eRkX0j0SSJCk7+vJBpgZ/I7iWybzbm7tISojeXMiU8PfFqXyQvtE/CkmSpOwZyAeZzLaQg7zt3MV7GBz9I5CklxnM/+Netoe8L25jMh9kYPSPQJIkKbt6cS5/Yn1RD/LW8HveQY/oP7ok7VJP3sHvWVPU98X1/IlzvSJGUtp4CxdJadSFwziL1zOKLgX+T9rBQu7gbmZSGf2HlqQ96MwhvJXXM5rOBf5P2sFi7uEOnmFH9B9aklrLASwprUoYyEmcwrGMo10B/v3rWchUHuRh1tEc/YeVpBYopT+ncBLHsx/lBfj3b2A+j/EQk1nt+6KkdHIAS0q39gzlME7nMIbQv03e05pZy4s8yWSe5UXqov+AktRK7RnKoZzOJAa14fviCp7hfp7xfVFSujmAJWVBCX04kAkcwqGMpIL2lLby36GRemqYx3PMYjaz2Bj9R5KkfVJKHyYwgUOYyH50pLzVz+htoo5qlvAsM5jN82zwrK+k9HMAS8qSCnrQh/04gFEMowfd6UGn3T6zdwc1bGEzm1nNAuazgHVspSb6DyFJbaiC7vRlLOMYy2B60p0edN7tM3urqGIbW9nEWhYxk4VsYAvV0X8ISWorDmBJWdWZ3vSiN13oTjn96Pifcxcl1LKGerZQxUY2sMHRqzZSQjntKKeMcsrpT0d60At2/k8ooTfdXvGv2cbGnf/d3MSWnf+zhrXUU08j9TRQ73k3tZHO9KI3velKV9ozhNKXvC82sIZatrKdLWxivTf+k5RNDmBJefHSi6KbomOUIRX0oQ+96U4v+tGPfvSlG/3oQDmltKMdULbzRm0lu/y927xzhDTQCDTQQBP11LKObaxnHetYxya27vy4xnNxaisv/+9jsx+0SMoDB7AkSa1RSmc605XhjGY4I+hDT3rSg660L+B/ah3bd16wv4GlLOYFVrCdSir9OEeSpJZzAEuS9NpK6chwhjOMUYxgNMPoQjntQn6PNlNPAztYzgssZTHLWcYyapzCkiS9FgewJEm715teDOZgJrIf/elNz1bfYbzQmtjMRtaykFnMZCWbvIe5JEm74wCWJOmV2tGBsRzMeA5kDEPpkLjZuytN1PIii3ieucxkATU0RidJkpQsDmBJkv6rH0M4kGM5mCH03u2jYpKumo2sYBpPMJ8VrIvOkSQpKRzAkiRBZ/pzJMdwIPszMDO/HZtZzTxmMJ1prKEqOkeSpGhZ+RUvSdLe6c9YJnEqE+hL5+iYAqlkPTN4hOnMZ310jCRJcRzAkqR8Kqcfh3AakxhH3+iYIlnHPKZzH8+zjvroGEmSis8BLEnKmxKGMIkTOY2RmT3nuyc7WMoDPMJ0VtAcHSNJUjE5gCVJ+VHKAA7njRzJWLpExwTbwQKmcSdPs8YnCEuS8sIBLEnKh64cxWmcxkF0jE5JkBqe4wEe4Em2R6dIklR4DmBJUtZ1ZD9O580cRJ/olITawHPczv0spCY6RZKkQnIAS5KyrC+nciYnM4zS6JSEa2I5D3M3D7AhOkWSpEJxAEuSsqk9B3Amb2f/3H/btzV2MJs/cz9zqItOkSSp7TmAJUnZ04MjOZdTGBUdklKLeYg/Mo0t0SGSJLUtB7AkKVuGchrv4kh6Roek3Gam8VseZGV0iCRJbccBLEnKijJG8nbO5jDaR6dkRA3P8nf+whIao1MkSWoLDmBJUhaUMpFzOYex3uyqjTWxgNv4I7N8WrAkKf0cwJKktOvIobyLNzImOiTDFvF3/swMH5MkSUo3B7AkKc3acwQX8Fb6R4fkwFr+zi95yvtDS5LSywEsSUqrco7kfN7MwOiQHFnN7dzKdBqiQyRJ2hsOYElSGpUxgfN5t+M3wAr+j18z2xtjSZLSxwEsSUqf8byP8xjub7EgzSzj9/yaudEhkiS1jocOkqR0GcJ7eA8H+hssWDPP8yt+x6roEEmSWs7DB0lSevTizXyYIymLDhEADUznx9zGtugQSZJaxgEsSUqHjpzCxZxG5+gQvUwl93ELU6iNDpEk6bU5gCVJaXAAl3AevaMztEsb+T0/ZE50hiRJr8WLyCRJSdefD3Atb6JTdIh2oxNHciolLKMyOkWSpD3xDLAkKcnacyqf5FTaR4foNdXxIDfyIHXRIZIk7Y4DWJKUXGO4hPfSLzpDLbaO3/BDFkVnSJK0a14CLUlKpk6cy/WcTZfoELVCZ47iBCp5gfroFEmSXs0BLElKooO5gi8wwiuVUqeEgZzOcJaxNjpFkqRXcgBLkpKmKxfwXV5Hh+gQ7aUOHMbJ1LHIhyNJkpLFASxJSpYJXMVnGBidoX3Uh9MZznw2RIdIkvRfDmBJUnJ04lyu43WUR4eoDZRzMMdSySK/DyxJSgoHsCQpKUbwNb7CsOgMtaGBvI6+zGVLdIgkSeAAliQlQzmv5/uc4/d+M6c9kzialSyhOTpFkiQHsCQpXk8+ybfZ33s+Z1IJQziVdsymJjpFkpR3DmBJUrRDuIoP0yM6QwXUlRMYxSIfjSRJiuUAliRFKuccbuA02kWHqMDacRBHsYbFNEWnSJLyywEsSYrTk0/yDUZFZ6hIBnIK7XjeS6ElSVEcwJKkKGO5hovpHp2hIurCcYzkOTZFh0iS8skBLEmKcRq3cKaXPudOOw5iEi+wNDpEkpRHDmBJUvF14P18lwnRGQoyhFPYxDwao0MkSXnjAJYkFVt3LuOr9I/OUKAenEoFT1MbHSJJyhcHsCSpuMZwDRfTKTpDwTpyLMP8NrAkqbgcwJKkYprEjbyV0ugMJUApEzmA51kTHSJJyg8HsCSpeN7ITRwdHaEEGcXRLGdhdIYkKS8cwJKk4mjP+VzH2OgMJcwATmADc2mKDpEk5YEDWJJUDJ24mO944yvtQndOoZpZ1EeHSJKyzwEsSSq8HlzKZXSLzlBCVXA87b0ntCSp8BzAkqRC68+3+QgV0RlKsPYcRS+epjI6RJKUbQ5gSVJhDeUqLqA8OkMJ147DGMB0tkeHSJKyzAEsSSqk/biZt/vYI7VAKQcyjqfZGB0iScouB7AkqXD24/u8gZLoDKVEKeMYy5Nsig6RJGWVA1iSVCiHcz2vi45QyoxhHE+zITpDkpRNDmBJUmEczQ85PjpCKTSao3iOFdEZkqQscgBLkgrhKH7A4dERSqlBHMZMVkZnSJKyxwEsSWp7R/EDDouOUIoNdAJLkgrBASxJamtHcYtnf7WPBnKoE1iS1NYcwJKktjWJHzp/1QYGcRjTWROdIUnKEgewJKkt7cf3OC46QhkxkNE84UORJEltxwEsSWo7+3EzZ0RHKENGMY5pbIzOkCRlhQNYktRWRnALr4+OUMaMZjRT2BadIUnKBgewJKlt9OdqzqEkOkOZM4p+PM6O6AxJUhY4gCVJbaEnV/E+SqMzlEGlHER3plAbHSJJSj8HsCRp33XlMj5EeXSGMqqECZTxJHXRIZKktHMAS5L2VTmf4FI6Rmcow9pxBNt4iqboEElSujmAJUn7poQLuYKu0RnKuHImsZoZ0RmSpHRzAEuS9s2buZr+0RHKgQoOZxELojMkSWnmAJYk7YtjuJEx0RHKie5M5FlWRGdIktLLASxJ2ntjuYlJ0RHKkX7sx2NsjM6QJKWVA1iStLd6cx1vio5QzgynHw9RHZ0hSUonB7Akae905qtcREl0hnLnAEqYQmN0hiQpjRzAkqS9UcJFPvpIIUo4iA08HZ0hSUojB7AkaW+cyXX0iY5QTnXgUOawKDpDkpQ+DmBJUutN5PuMjY5QjnVjAlNYH50hSUobB7AkqbX6cB2nRkco5wbSn4eois6QJKWLA1iS1Dod+BwX+vtD4fajlse9GZYkqTU8gJEktc55XEnn6AiJMg5iGc9FZ0iS0sQBLElqjSP4LkOjIyQAOjGeaayKzpAkpYcDWJLUcv35HsdFR0j/0ZcBPEhldIYkKS0cwJKklmrP53g/pdEZ0kuMpI7H/CawJKllHMCSpJZ6C1fSNTpCepkyJjCfedEZkqR0cABLklpmHDcxOjpCepVOjOVhNkZnSJLSwAEsSWqJbnyTN0RHSLs0kAoeoD46Q5KUfA5gSVJLXMhnKI+OkHZjf1bxdHSEJCn5HMCSpNc2iWsZEB0h7VY5Y3iUNdEZkqSkcwBLkl5LL6714UdKuL70436qozMkScnmAJYkvZYP8RHaRUdIr2EU63gyOkKSlGwOYEnSnh3JdfSJjpBeUzvG8TgrozMkSUnmAJYk7UkvruLY6AipRXrSgwe8DFqStHul0QGSpER7B2+JTpBa7CzeHp0gSUoyzwBLknZvItfRPzpCarFyRvEI66IzJElJ5QCWJO1OJy7n9dERUqv0pR0PUh+dIUlKJi+BliTtzht5V3SC1EolvJs3RkdIkpLKM8CSpF0bwbWMjo6QWq09A7mfbdEZkqQkcgBLknaljE/yXkqiM6S9MJTtTKE5OkOSlDxeAi1J2pVJXOj8VUqVciGToiMkSUnkAJYkvVpXPsrQ6Ahprw3lYjpHR0iSkscBLEl6tTfw5ugEaZ+81VthSZJezQEsSXqlfnyY7tER0j7pwcX0i46QJCWNA1iS9HIlnMdx0RHSPjuO8/weuyTp5RzAkqSXG8tFdIiOkPZZBy5ibHSEJClZHMCSpJcq4QIOjI6Q2sSBXOA5YEnSSzmAJUkvNcnLRpUZJbyTQ6MjJElJ4gCWJP1XRy5kRHSE1GZG8SE6RkdIkpLDASxJ+q9JnB2dILWpszk8OkGSlBwOYEnSv1VwMf2jI6Q21Z8LqYiOkCQlhQNYkvRvp/D66ASpzb2FU6ITJElJ4QCWJP1LF95H7+gIqc314X10iY6QJCWDA1iS9C/H8YboBKkg3sBx0QmSpGRwAEuSADpzId2jI6SC6M6FdI6OkCQlgQNYkgRwImdEJ0gFcwYnRidIkpLAASxJgs5cQM/oCKlgevI+7wUtSXIAS5IAjuD06ASpoE7l0OgESVI8B7AkqSPv9v7Pyrj+XEDH6AhJUjQHsCTpIN4cnSAV3BuZEJ0gSYrmAJakvCvlXAZGR0gFN4R3etwjSXnnLwJJyruxvDU6QSqKtzIqOkGSFMsBLEl5d7ajQDkxmrOjEyRJsRzAkpRvQzibsugIqSjKeBuDoyMkSZEcwJKUbydxeHSCVDSTOD46QZIUyQEsSXnWmXNpFx0hFU073kmn6AhJUhwHsCTl2TEcE50gFdWxHB2dIEmK4wCWpPxqx5n0jY6Qiqo/b/SqB0nKLwewJOXXUN4cnSAV3ZsZGp0gSYriAJak/DrTByAph0ZxZnSCJCmKA1iS8qorb/JSUOVQO86ia3SEJCmGA1iS8upIbwaknJrkw78kKa8cwJKUT2WcQe/oCClEX17n1Q+SlE8OYEnKp368KTpBCvNm738uSfnkAJakfDqZ0dEJUphRHBedIEmK4ACWpDwq5/VUREdIYTpxFuXREZKk4nMAS1Iejef46AQp1DGMjU6QJBWfA1iS8uhwRkQnSKFGc2R0giSp+BzAkpQ/HXkzZdERUqgy3kiH6AhJUrE5gCUpfw7w3JfkdRCSlEcOYEnKn5PoH50ghRvEKdEJkqRicwBLUt505wTaRUdI4TpwAp2iIyRJxeUAlqS8Gcph0QlSIhzLqOgESVJxOYAlKW+OZEh0gpQIQ/02vCTljQNYkvKlnDd4B2gJgDLO8OsAkpQvDmBJypchHBidICXGwQyNTpAkFZMDWJLy5SgvgJb+YzCHRydIkorJASxJedKOY+kSHSElRjeO9SsBkpQnDmBJypN+HBWdICXKUfSNTpAkFY8DWJLyZDgHRCdIiXIAI6ITJEnF4wCWpDw5moroBClRunJMdIIkqXgcwJKUH2Wc4PcdpZcp4wSPhiQpP3zLl6T8GM246AQpcfbzImhJyg8HsCTlx3gfgSS9yjAOik6QJBWLA1iS8uMgukUnSInTzQEsSfnhAJakvOjG4dEJUiId7kdDkpQXDmBJyoteHBKdICXSIfSKTpAkFYcDWJLyYgJ9oxOkROrL+OgESVJxOIAlKS8O8xnA0i515NDoBElScTiAJSkf2nGw7/nSLpVxGO2iIyRJxeDBkCTlwxCfdSrt1ggfESZJ+eAAlqR8GMaw6AQpsfz7Q5JywgEsSfkwhj7RCVJi9XEAS1I+OIAlKQ/acQAl0RFSYpUwgbLoCElS4TmAJSkPOnJwdIKUaEd4l3RJygMHsCTlQQ/GRCdIiTaKztEJkqTCcwBLUh6Mpmt0gpRo3RgVnSBJKjwHsCTlwTjPbkl71IUDoxMkSYXnAJakPBhDx+gEKdE6+qRsScoDB7AkZV+Fh/bSa9rP22BJUvY5gCUp+3ozODpBSryB9IpOkCQVmgNYkrKvL8OiE6TEG0qf6ARJUqE5gCUp+3rSPzpBSrz+9IxOkCQVmgNYkrJvFOXRCVLidfRBSJKUfQ5gScq6UkZGJ0ipMJyS6ARJUmE5gCUp68q8B7TUImNoF50gSSosB7AkZV07zwBLLTKCsugESVJhOYAlKet60Ds6QUqF3nSNTpAkFZYDWJKybiCdohOkVOjM0OgESVJhOYAlKesGOIClFunEgOgESVJhOYAlKesGUBGdIKVCBf2iEyRJheUAlqSs6+8AllrEASxJmecAlqSs6xMdIKVG3+gASVJhOYAlKds6eUgvtVgfOkYnSJIKyQEsSdnWkZ7RCVJq9PGWcZKUbQ5gScq2DnSPTpBSoxsdohMkSYXkAJakbOtC/+gEKTU8AyxJGecAlqRsK6dLdIKUGl0oj06QJBWSA1iSsq2C3tEJUmr0o3N0giSpkBzAkpRtFZREJ0ipUep3gCUp2xzAkpRtg32nl1qslEHRCZKkQvKwSJKyrb1ngKVWaBcdIEkqJAewJGXbAAew1GKl3jVdkrLNASxJ2dbBASy1WAndohMkSYXkAJakbPOhLlJr+IGRJGWaA1iSsqyUoR7QSy1WQn//jpGkLHMAS1K2+T4vtUZnB7AkZZkHRpIkSZKkXHAAS1K2+T4vtUZzdIAkqZA8MJKkLCuhX3SClCo9vQRakrLMASxJWVZCl+gEKVV6O4AlKcscwJKUbV7QKUmStJMDWJIkSZKUCw5gSZIkSVIuOIAlSZIkSbngAJYkSZIk5YIDWJIkSZKUCw5gSZIkSVIuOIAlSZIkSbngAJYkSfq3kugASVIhOYAlKduaogOkVKmjOTpBklQ4DmBJyrIm1kUnSKmywgEsSVnmAJakbKuMDpBSxWsmJCnTHMCSJEmSpFxwAEuSJP1bfXSAJKmQHMCSlGXNrI9OkFJljRdBS1KWOYAlKcua2eItfaQWa6Y2OkGSVEgOYEnKNuev1BqN0QGSpEJyAEtStq3zgk6pxZpYFZ0gSSokB7AkZdsOzwFLLeYl0JKUcQ5gScq2zQ5gqcWa2RydIEkqJAewJGXbBgew1GLNbIxOkCQVkgNYkrKtnu3RCVJqbKEmOkGSVEgOYEnKthq2RidIqbGNuugESVIhOYAlKduqvaRTarHNVEcnSJIKyQEsSdlW6xlgqcU2ewm0JGWbA1iSsq2aTdEJUmps9AywJGWbA1iSsq2K9dEJUmp4CbQkZZwDWJKyrdEBLLXYOhqjEyRJheQAlqSsW099dIKUCvV+XCRJWecAlqSsW+9FnVKLVLE6OkGSVFgOYEnKurUOYKlFqlgTnSBJKiwHsCRl3UoqoxOkVKhibXSCJKmwHMCSlHVr2RadIKXCdtZFJ0iSCssBLElZV8eS6AQpFZZQF50gSSosB7AkZV0jy6MTpFRY7kOQJCnrHMCSlHWNLItOkFJhqQNYkrLOASxJ2beYpugEKfGaWBCdIEkqNAewJGXfGjZHJ0iJt5mN0QmSpEJzAEtS9m1kRXSClHgrHMCSlH0OYEnKvk2sjk6QEm+VA1iSss8BLEnZt4ml0QlS4i32qwKSlH0OYEnKA+9uK+1ZA4ujEyRJhecAlqQ8mM2O6AQp0SqZH50gSSo8B7Ak5cECB7C0RztYGJ0gSSo8B7Ak5cFaVkUnSIm2irXRCZKkwnMAS1Ie1DAjOkFKtBnURCdIkgrPASxJeVDLnOgEKdFmUxudIEkqPAewJOXDQqqiE6TE2u4tsCQpHxzAkpQPy1kRnSAl1mpWRidIkorBASxJ+bCEJdEJUmL594ck5YQDWJLyYYeXeEq79bwPCpOkfHAAS1JePOVdbqVd8i7pkpQbDmBJyoun2RadICXSNp6NTpAkFYcDWJLyYh2LohOkRJrL6ugESVJxOIAlKS88yyXt2lNeHSFJeeEAlqS8qOMp6qIjpMSpYyYN0RGSpOJwAEtSfjzHqugEKXFWMTc6QZJULA5gScqPhSyPTpASZxkLohMkScXiAJak/NjG09EJUuJM8xvAkpQfDmBJypMHqI1OkBKllsnRCZKk4nEAS1KezPEiaOllljMnOkGSVDwOYEnKk3VMi06QEmUa66ITJEnF4wCWpDypZBqN0RFSYjQyjcroCElS8TiAJSlfHvdRSNJ/rGRqdIIkqZgcwJKUL3NZFJ0gJcYi5kUnSJKKyQEsSfmyg4eiE6TEeICq6ARJUjE5gCUpbx5he3SClAjbeSQ6QZJUXA5gScqbhcyMTpASYSaLoxMkScXlAJakvFnFlOgEKRGmeEs4ScobB7Ak5c/DbIpOkMJt4uHoBElSsTmAJSl/prMwOkEKt5Dp0QmSpGJzAEtS/mzl/ugEKdxdbIlOkCQVmwNYkvKniXtZHx0hhVrPgzRHR0iSis0BLEl59DzPRidIoZ5hdnSCJKn4HMCSlEebeJDG6AgpTAP3eis4ScojB7Ak5dOdrIlOkMKs9XvwkpRPDmBJyqcXmBydIIWZzKLoBElSBAewJOVTFXdSGx0hhajhDqqiIyRJERzAkpRXjzInOkEKMZtHoxMkSTEcwJKUV0u5LzpBCvEAy6MTJEkxHMCSlF+3sSE6QSq6DdwWnSBJiuIAlqT8msOU6ASp6B7x4n9Jyi8HsCTl1zb+QXV0hFRUldzGtugISVIUB7Ak5dm9ngtTzszjgegESVIcB7Ak5dkq/hadIBXV31gdnSBJiuMAlqR8u51l0QlS0Szl9ugESVIkB7Ak5dt87oxOkIrmduZGJ0iSIjmAJSnfavgr66MjpKJYzz+oi46QJEVyAEtS3j3K1OgEqSge5tHoBElSLAewJOVdNb+jMjpCKrgqfu9jvyQp7xzAkqSHPC+mHJjMI9EJkqRoDmBJ0kb+TG10hFRQNfyFjdERkqRoDmBJEvyDZ6ITpIJ6ljuiEyRJ8RzAkiRYyy+8O64yrI5fsDY6QpIUzwEsSQK4g2nRCVLBTPP8ryQJHMCSpH9Zza89B6yMquPXrI6OkCQlgQNYkvQv/+Cp6ASpIJ7iH9EJkqRkcABLkv5lDb/0XtDKoFp+yZroCElSMjiAJUn/5jlgZZHnfyVJ/+EAliT92xp+SX10hNSmaviF538lSf/mAJYk/dffeTA6QWpTD3n+V5L0Xw5gSdJ/reNWtkdHSG1mO79ifXSEJCk5HMCSpJe6i/uiE6Q2cw+3RydIkpLEASxJeqmt/IgN0RFSm9jAT6iMjpAkJYkDWJL0clP4a3SC1Cb+xJToBElSsjiAJUkvV8OPWRodIe2zxfyYmugISVKyOIAlSa/0LD+nOTpC2ifN/JRZ0RGSpKRxAEuSXqmZX/NEdIS0T57g936MI0l6JQewJOnVlvJjqqMjpL1W7YX8kqRdcQBLknblbz4+Ril2O3+LTpAkJVFZdIAkKZFqWcsZdIvOkPbCi1zKgugISVISOYAlSbu2ku6cSEl0htRKTVzPb/3+ryRpV7wEWpK0a438lMejI6RWe4Jf0hQdIUlKJs8AS5J2ZyvbOIOK6AypFTZyGU9GR0iSksozwJKk3fsnf4xOkFrlT9wZnSBJSi7PAEuSdq+BRZxE/+gMqYVm8FnWRUdIkpLLASxJ2pMN1HIqHaIzpBbYxld4KDpCkpRkXgItSdqzP/hEVaXE37ktOkGSlGyeAZYk7Vk9izmBftEZ0mt4js+yIjpCkpRsDmBJ0mtZSxWneRm0Em0bl/JAdIQkKekcwJKk1zafwRwRHSHtwa3cSEN0hCQp6RzAkqTX1sBCjmJwdIa0G0/wee/+LEl6bQ5gSVJLbGQdp9E5OkPahfV8gcejIyRJaeAAliS1zBK6cKxPD1DiNHATP6MxOkOSlAYOYElSyzQym4PYLzpDeoV/8hW2RUdIktLBASxJaqlKFnEqPaMzpJd4gU+yIDpCkpQWDmBJUsutZDsn0zE6Q9ppK1/mzugISVJ6OIAlSa0xl14cTUl0hgQ08wNu8OFHkqSWcwBLklqjkdkcyJjoDAm4k0vZGh0hSUoTB7AkqXW2M5fj6RudodybwydYGB0hSUoXB7AkqbVWs5ETfSawQq3jUu6PjpAkpY0DWJLUegsp4wR/hyhMHVfzc5/9K0lqLQ9eJEmt18hzDOAQb4alEE38km9RGZ0hSUofB7AkaW/UMIuDGBWdoVx6gM+zJjpCkpRGDmBJ0t7ZwiKO9WZYKro5fIw50RGSpHRyAEuS9tYKXuQkukZnKFdW8Skejo6QJKWVA1iStPcWUsdxdIjOUG5s4+v8luboDElSWjmAJUl7r5lZdOBof5uoKOq4nhuoj86QJKWXhyySpH3RwHQGcaj3g1bBNfNLvkpVdIYkKc0cwJKkfVPH04xkfHSGMu82vsjG6AhJUro5gCVJ+2o7MziY4dEZyrQH+DRLoyMkSWnnAJYk7buNzOFQBv3/9u4sVvPyoOP4FzrDsAzIzkAVhp1hsS2kBYpasbFJa3tRl7RpEzUx8aIhVaRRQaNJjcYYNV40abSuLSRgXRATNBQKBWk7pZQdMmwdhrIMs7HM4MCcmfGCWlMFZDnnPO95z+dzf5Lve27e/PK8/+c/OoOp9c1+rbtGRwCw8BnAAMyGx7qvH++g0RlMpTV9oq+PjgBgGhjAAMyOda3tbBOYWfdwF3Xt6AgApoMBDMBsWdMj/UgHjM5gqjzar3bV6AgApoUBDMDseaBnOq99R2cwNTb1m/396AgApocBDMDs2d1dbe7dJjCzYlOX9Pl2jc4AYHoYwADMpl3d0SYTmFmwqYv7m2ZGZwAwTQxgAGbXru5sc+eawLwpG/st8xeA2WYAAzDbdnVHmzuvfUaHsGBtdvoLwFwwgAGYfU6BeTM2don5C8BcMIABmAu7uqMtToF5AzZ3SX9t/gIwFwxgAObGS9dhvavlo0NYUL7TJf2t+QvA3DCAAZgru7qzh3tXB44OYcFY2690uRcfATBXDGAA5s6u7u3hzumg0SEsCA90YVeNjgBgmhnAAMyt+7uz0ztqdAYT79Yu6JrREQBMNwMYgLm2tttb1dGjM5hoN3RhXx0dAcC0M4ABmHuPtbqjO6k9RocwkXZ3VRd2x+gMAKafAQzAfNjQzR3c6e05OoSJM9OlXdS3R2cAsBgYwADMj2e6vj07s6WjQ5goz/Vn/XYbRmcAsDgYwADMlxf6Wlt7mzcD8z3r+73+tK2jMwBYLAxgAObPjlb3YO/okNEhTIT7u7Av9OLoDAAWDwMYgPm0uzXd3nEd40KsRW53N3Zh17RrdAgAi4kBDMB8W9dNHdapLsRaxHZ0WRd1++gMABYbAxiA+belm9rZqe07OoQhNvUnfbrHR2cAsPgYwACM8Hw392g/3MGjQ5h3D3Zxf+7iKwBGMIABGGNnd3Zbx3bs6BDm1XV9sqvbOToDgMXJAAZgnHXd0F6taq/RIcyLrf1lv9HdozMAWLwMYABGeqYvt6EzOnB0CHPukX63P2rT6AwAFjMDGICxZvpW32ylFyNNtV3d0Ce7sh2jQwBY3AxgAEbb3bqubY9Ob9noFObElj7br3d3u0eHALDYGcAATILnuqmHOr4Vo0OYdbd3cZ9ty+gMADCAAZgUM93Vze3fSS0dncKseb7L+1TXNzM6BADKAAZgkjzVdW3shA4ZHcKseKBP94d9Z3QGAPw3AxiASfJC3+jrHdRxLRmdwpuyvSu7qKt6YXQIAPwPAxiASfN417a+Ezt4dAhv2Jp+vz/oodEZAPD9DGAAJs/2bunm9umE9hqdwuu2rSv6VFe1fXQIAPxvBjAAk+mJvtTDHd1Ro0N4XW7td/rj1o3OAICXYwADMKle7I5ubHcrWz46hddkfZ/r4r7ci6NDAODl7TE6AABe1ZLe2wW9z4+hJ9yLXdNnus4LjwCYZAYwAJPv0D7aL3fG6Axe0V39RZe3cXQGALw6AxiAhWFVv9THWzE6g//jyS7rr7pvdAYA/P8MYAAWiqWd3QW9vwNGh/A9z/ZvfabV7RgdAgCvhQEMwEKyX+/vE727ZaNDaHs39bmubtvoEAB4rQxgABaaw/twv9DZ7Tk6ZBHb1er+rn9qw+gQAHg9DGAAFqJj+rl+vlUtGR2yCM10X5/viz0yOgQAXi8DGICF6pg+2i92yuiMRebuLu1y4xeAhckABmAhO72P9dMd7yR4Hsy0pn/pUvc9A7BwGcAALGx7dEof6uOd7pngObSru7usL7a23aNTAOCNM4ABmAbH9TN9pNPae3TIFNrePV3RP/bw6BAAeLMMYACmxQ/2U32ss9pvdMgU2dbqLu/fe3R0CADMBgMYgGlySD/RR/rRDh8dMgWe6Ktd0XVtHh0CALPFAAZg2izvnX24D/ZDrsZ6g2Z6pKv7h25t2+gUAJhNBjAA02hpx/fBPtA57TM6ZYHZ2i1d3ZWtbWZ0CgDMNgMYgOl1ROf0s53nLPg1memRbuyfW91To1MAYG4YwABMt6Wd2Ad6X2d3wOiUCfZsq7umq7vfuS8A08wABmAxOKzT+1Dv6ZT2HZ0yYba2phv71+5uw+gUAJhrBjAAi8dR/Vjn955Wtmx0ygR4obV9pWv7j55s9+gYAJgPBjAAi8veHdG5/WTv7MT2Hh0zyPYe6Ja+1Nda3/bRMQAwfwxgABajPTqhM3tv53b0ono2+NnWdnNf6Vs96NQXgMXHAAZg8VrWwb298zurUztiqr8Td7e+e7u167utzb04OgcAxpjmL3sAeG0O7fje3vm9rRUdODpmlm1pfXd0fbf3UBtHxwDAWAYwALxkWYd0Vmd2Rqe1csE/H7y9td3TXX2j29rSC6NzAGASGMAA8P3278iO7R2d1ckd1qEtGR30OuxsQxta063d1rd7oudGBwHAJDGAAeDlLe3gVnVqqzqxkzuyt0zsFJ5pZ0+0pnt7oPu6r83tGJ0EAJPIAAaAV7e0Azqwozu50zqpwzusg9p3dFT1fFva0FPd3z2taV1P93Q7R0cBwCQzgAHgtVvSkR3Tit7ayo5uZUe1b0tbOi9nwzPtaEfP93hrW9faHuvJHumJZkb/UwBgoTCAAeCNWNre7dN+HdnK3tqKVnRIyzuo5e3XD8zKIJ7pmba1tS1tbVNP9mSPtbYn2tZ/tt2PnAHg9TOAAWB2LP/uAF7eAe3doe3fgR1aHdF+1Vta0bJX+MsXerKd1bbWVxt7uufa2Paebet3B/DW0R8OAKaBAQwAc+Wla7OWtGe1R0te8Vt3dzPtrnY100tXWgEAAAAAAAAAAAAAAAAAAAAAAAAAAAAAAAAAAAAAAAAAAAAAAAAAAAAAAAAAAAAAAAAAAAAAAAAAAAAAAAAAAAAAAAAAAAAAAAAAAAAAAAAAAAAAAAAAAAAAAAAAAAAAAAAAAAAAAAAAAAAAAAAAAAAAAAAAAAAAAAAAAAAAAAAAAAAAAAAAAAAAAAAAAAAAAAAAAAAAAAAAAAAAAAAAAAAAAAAAAAAAAAAAAAAAAAAAAAAAAAAAAAAAAAAAAAAAAAAAAAAAAAAAAAAAAAAAAAAAAAAAAAAAAAAAAAAAAAAAAAAAAAAAAAAAAAAAAAAAAAAAAAAAAAAAAAAAAAAAAAAAAAAAAAAAAAAAAAAAAAAAAAAAAAAAAAAAAAAAAAAAAAAAAAAAAAAAAAAAAAAAAAAAAAAAAAAAAAAAAAAAAAAAAAAAAAAAAAAAAAAAAAAAAAAAAAAAAAAAAAAAAAAAAAAAAAAAAAAAAAAAAAAAAAAAAAAAAAAAAAAAAAAAAAAAAAAAAAAAAAAAAAAAAAAAAAAAAAAAAAAAAAAAAAAAAAAAAAAAAAAAAAAAAAAAAAAAAAAAAAAAAAAAAAAAAAAAAAAAAAAAAAAAAAAAAAAAAAAAAAAAAAAAAAAAAAAAAAAAAAAAAAAAAAAAAAAAAAAAAAAAAAAAAAAAAAAAAAAAAAAAAAAAAAAAAAAAAAAAAAAAAAAAAAAAAAAAAAAAAAAAAAAAAAAAAAAAAAAAAAAAAAAAAAAAAAAAAAAAAAAAAAAAAAAAAAAAAAAAAAAAAAAAAAAAAAAAAAAAAAAAAAAAAAAAAAAAAAAAAAAAAAAAAAAAAAAAAAAAAAAAAAAAAAAAAAAAAAAAAAAAAAAAAAAAAAAAAAAAAAAAAAAAAAAAAAAAAAAAAAAAAAAAAAAAAAAAAAAAAAAAAAAAAAAAAAAAAAAAAAAAAAAAAAAAAAAAAAAAAAAAAAAAAAAAAAAAAAAAAAAAAAAAAAAAAAAAAAAAAAAAAAAAAAAAAAAAAAAAAAAAAAAAAAAAAAAAAAAAAAAAAAAAAAAAAAAAAAAAAAAAAAAAAAAAAAAAAAAAAAAAAAAAAAAAAAAAAAAAAAAAAAAAAAAAAAAAAAAAAAAAAAAAAAAAAAAAAAAAAAAAAAAAAAAAAAAAAAAAAAAAAAAAAAAAAAAAAAAAAAAAAAAAAAAAAAAAAAAAAAAAAAAAAAAAAAAAAAAAAAAAsKD8F7/AQQCj5pJzAAAAJXRFWHRkYXRlOmNyZWF0ZQAyMDIyLTEyLTMxVDEzOjAyOjI5KzAwOjAwPWBH+wAAACV0RVh0ZGF0ZTptb2RpZnkAMjAyMi0xMi0zMVQxMzowMjoyOSswMDowMEw9/0cAAAAodEVYdGRhdGU6dGltZXN0YW1wADIwMjItMTItMTdUMDM6MzQ6MzUrMDA6MDCefLphAAAAAElFTkSuQmCC;" vertex="1" parent="1">
          <mxGeometry x="770" y="725" width="50" height="50" as="geometry" />
        </mxCell>
        <mxCell id="OkQ715_x-9JWaOCkeFNG-18" style="edgeStyle=orthogonalEdgeStyle;rounded=0;orthogonalLoop=1;jettySize=auto;html=1;entryX=0.5;entryY=1;entryDx=0;entryDy=0;" edge="1" parent="1" source="OkQ715_x-9JWaOCkeFNG-16" target="OkQ715_x-9JWaOCkeFNG-15">
          <mxGeometry relative="1" as="geometry" />
        </mxCell>
        <mxCell id="OkQ715_x-9JWaOCkeFNG-16" value="vše v pořádku,&lt;br&gt;pokud ne, ukáže error, pošle sms, jak dostane internet, napíše sms. Poté se uživatel může přihlásit a spustit to." style="rounded=0;whiteSpace=wrap;html=1;" vertex="1" parent="1">
          <mxGeometry x="450" y="920" width="140" height="90" as="geometry" />
        </mxCell>
        <mxCell id="OkQ715_x-9JWaOCkeFNG-17" value="" style="curved=1;endArrow=classic;html=1;rounded=0;" edge="1" parent="1">
          <mxGeometry width="50" height="50" relative="1" as="geometry">
            <mxPoint x="270" y="710" as="sourcePoint" />
            <mxPoint x="320" y="660" as="targetPoint" />
            <Array as="points">
              <mxPoint x="320" y="710" />
              <mxPoint x="270" y="660" />
            </Array>
          </mxGeometry>
        </mxCell>
        <mxCell id="OkQ715_x-9JWaOCkeFNG-20" style="edgeStyle=orthogonalEdgeStyle;rounded=0;orthogonalLoop=1;jettySize=auto;html=1;entryX=0;entryY=0.5;entryDx=0;entryDy=0;" edge="1" parent="1" source="OkQ715_x-9JWaOCkeFNG-19" target="OkQ715_x-9JWaOCkeFNG-8">
          <mxGeometry relative="1" as="geometry" />
        </mxCell>
        <mxCell id="OkQ715_x-9JWaOCkeFNG-19" value="" style="whiteSpace=wrap;html=1;aspect=fixed;" vertex="1" parent="1">
          <mxGeometry x="-330" y="810" width="80" height="80" as="geometry" />
        </mxCell>
      </root>
    </mxGraphModel>
  </diagram>
</mxfile>
